<?xml version="1.0" encoding="UTF-8"?>
<svg version="1.1" xmlns="http://www.w3.org/2000/svg" width="512" height="512">
<path d="M0 0 C0.71253394 -0.00145344 1.42506788 -0.00290688 2.15919375 -0.00440437 C4.55902111 -0.00806862 6.95878512 -0.00457596 9.35861206 -0.0011425 C11.09163 -0.00229415 12.82464769 -0.00388197 14.55766487 -0.00586975 C19.32957261 -0.01005704 24.10146044 -0.00797506 28.87336826 -0.00488353 C34.01589152 -0.00262723 39.15841127 -0.0061102 44.30093384 -0.00886345 C54.37897586 -0.01331765 64.45701046 -0.01234622 74.53505278 -0.00945081 C82.72333048 -0.00719541 90.9116061 -0.00688485 99.09988403 -0.00797462 C100.84581634 -0.00820447 100.84581634 -0.00820447 102.62702 -0.00843897 C104.99133094 -0.00875868 107.35564188 -0.00908289 109.71995282 -0.00941156 C131.90706342 -0.01226533 154.09416988 -0.00898094 176.2812798 -0.00361119 C195.33228715 0.00085675 214.38328841 0.00008079 233.43429565 -0.00452995 C255.54025561 -0.00987753 277.64621195 -0.01199065 299.75217247 -0.00891769 C302.10794449 -0.00859913 304.46371651 -0.00828476 306.81948853 -0.00797462 C307.97867204 -0.00782035 309.13785555 -0.00766607 310.33216584 -0.00750712 C318.51369127 -0.00664252 326.69521442 -0.00810363 334.8767395 -0.01045418 C344.84284455 -0.0132544 354.80894173 -0.01250918 364.77504587 -0.00717343 C369.86304311 -0.00453945 374.9510272 -0.00352628 380.03902435 -0.00682259 C384.69228008 -0.00979172 389.3455104 -0.00818233 393.9987638 -0.00284503 C395.68645634 -0.00172351 397.37415101 -0.00230623 399.0618422 -0.00472082 C401.3477166 -0.00774159 403.63350284 -0.00466276 405.91937256 0 C407.1915457 0.00016235 408.46371883 0.0003247 409.77444267 0.00049198 C412.40128502 0.10386633 414.46490908 0.39109573 416.95968628 1.12584114 C418.69131018 1.26957344 420.42666961 1.37159046 422.16281128 1.44224739 C423.14249878 1.48414192 424.12218628 1.52603645 425.13156128 1.56920052 C426.14734253 1.60851692 427.16312378 1.64783333 428.20968628 1.68834114 C429.75656128 1.75311653 429.75656128 1.75311653 431.33468628 1.81920052 C433.87622498 1.92509796 436.41785824 2.02717557 438.95968628 2.12584114 C438.98546753 3.24861458 439.01124878 4.37138802 439.03781128 5.52818489 C439.3149882 16.33176839 439.3149882 16.33176839 443.02218628 26.36412239 C445.2165727 30.48774021 445.08741333 34.54131338 445.09390736 39.14660168 C445.09625959 39.85703844 445.09861182 40.5674752 445.10103533 41.29944035 C445.10771936 43.69219653 445.10726728 46.08489832 445.1068573 48.47766304 C445.1101563 50.20569264 445.11388194 51.93372146 445.11799878 53.6617493 C445.12802285 58.42013732 445.13173623 63.17851272 445.13438809 67.93690979 C445.13828994 73.06525594 445.14786838 78.19359208 445.15660095 83.32193184 C445.17636897 95.71197014 445.18643211 108.10200925 445.19532874 120.49205938 C445.19971119 126.32586321 445.20507812 132.15966613 445.21031761 137.99346924 C445.22733041 157.38498846 445.24182469 176.77650711 445.24906635 196.16803265 C445.25097627 201.2009252 445.2528966 206.23381775 445.25485229 211.26671028 C445.25533604 212.51762106 445.25581978 213.76853185 445.25631817 215.05734902 C445.26461885 235.3222522 445.28995619 255.58709637 445.32243297 275.85197378 C445.35549984 296.654553 445.37351479 317.45710222 445.37671059 338.25970787 C445.37887606 349.94077046 445.38763008 361.62174698 445.41317177 373.30278397 C445.43487366 383.25078167 445.44293167 393.1986724 445.43320499 403.14669109 C445.42865881 408.22145801 445.43056515 413.29600421 445.44996643 418.37074089 C445.46758799 423.02016203 445.46660846 427.66920125 445.45106914 432.3186264 C445.44869155 433.99702717 445.45302448 435.67545433 445.46489779 437.35381479 C445.53226752 447.50923354 444.57474723 455.89571924 439.95968628 465.12584114 C439.73018309 467.33020514 439.54892695 469.53976287 439.39718628 471.75084114 C439.27150269 473.53361458 439.27150269 473.53361458 439.14328003 475.35240364 C439.08269409 476.26763802 439.02210815 477.18287239 438.95968628 478.12584114 C438.12566284 478.15162239 437.2916394 478.17740364 436.43234253 478.20396614 C429.92643662 478.53186976 424.66881379 479.15677649 418.86203003 482.18834114 C414.61454582 484.28155718 410.63794919 484.25343712 405.94171906 484.26006222 C404.8765133 484.26359056 404.8765133 484.26359056 403.78978825 484.26719019 C401.39804138 484.27387421 399.00634892 484.27342214 396.61459351 484.27301216 C394.8872766 484.27631117 393.15996047 484.28003681 391.43264532 484.28415364 C386.67618792 484.29417775 381.91974314 484.2978911 377.16327667 484.30054295 C372.03695641 484.30444483 366.91064615 484.3140233 361.78433228 484.32275581 C349.39873807 484.34252434 337.01314305 484.35258729 324.62753701 484.3614836 C318.79535637 484.36586619 312.96317663 484.3712331 307.1309967 484.37647247 C287.7437687 484.39348574 268.35654127 484.40797971 248.96930695 484.41522121 C243.93745422 484.41713112 238.90560149 484.41905145 233.87374878 484.42100716 C231.99777607 484.42173277 231.99777607 484.42173277 230.08390492 484.42247304 C209.82614381 484.43077257 189.56844176 484.45610777 169.31070644 484.48858783 C148.51377245 484.52166059 127.71686847 484.53967021 106.91990805 484.54286546 C95.24272595 484.54503043 83.56562997 484.55377726 71.88847351 484.57932663 C61.94306624 484.60103661 51.99776599 484.60908257 42.05233771 484.59935985 C36.9794721 484.59481595 31.90682731 484.59670676 26.833992 484.61612129 C22.18513541 484.63375921 17.53666061 484.63275004 12.88779992 484.617224 C11.21072723 484.61484889 9.53362806 484.61916645 7.85659581 484.63105265 C-2.48727274 484.69979389 -11.60713102 483.84243249 -21.04031372 479.12584114 C-23.92099109 478.89297201 -26.78043891 478.70638174 -29.66531372 478.56334114 C-31.11604488 478.48803109 -32.56675775 478.41236812 -34.01745605 478.33642769 C-34.77099051 478.29700082 -35.52452496 478.25757395 -36.30089378 478.21695232 C-36.87490236 478.18688563 -37.44891094 478.15681894 -38.04031372 478.12584114 C-39.18752813 457.10822531 -39.18509265 436.11248702 -39.17103839 415.07137334 C-39.16874766 409.98393715 -39.17228199 404.8965042 -39.17501831 399.80906868 C-39.17943664 389.87557691 -39.17851704 379.94209274 -39.17560567 370.00860069 C-39.17333542 361.92354678 -39.1730461 353.83849499 -39.17412949 345.75344086 C-39.17428272 344.59706271 -39.17443595 343.44068456 -39.17459383 342.24926465 C-39.1749136 339.89909794 -39.17523781 337.54893123 -39.17556642 335.19876453 C-39.17840985 313.2220369 -39.17515241 291.24531347 -39.16976605 269.26858654 C-39.16530203 250.47450199 -39.16607285 231.68042362 -39.17068481 212.88633919 C-39.17605587 190.98909567 -39.17813215 169.09185581 -39.17507255 147.19461173 C-39.17475405 144.85218124 -39.17443968 142.50975074 -39.17412949 140.16732025 C-39.17397521 139.01522589 -39.17382094 137.86313152 -39.17366198 136.6761252 C-39.17280418 128.61778083 -39.17424378 120.55943882 -39.17660904 112.50109482 C-39.17943559 102.65591707 -39.17860941 92.81074728 -39.1733283 82.96557043 C-39.17072892 77.95724169 -39.16962096 72.94892613 -39.17297745 67.94059753 C-39.18652816 45.97965869 -38.98125822 24.06919818 -38.04031372 2.12584114 C-35.91867206 2.05560316 -33.79702866 1.98541776 -31.67538452 1.91525459 C-30.49389454 1.87616446 -29.31240456 1.83707434 -28.09511185 1.79679966 C-26.22517112 1.73543101 -24.35520849 1.67469939 -22.4851799 1.61606884 C-20.76905262 1.56212274 -19.05310828 1.50243947 -17.33718872 1.44224739 C-16.22698364 1.40558968 -15.11677856 1.36893196 -13.97293091 1.33116341 C-11.20918321 1.24103759 -11.20918321 1.24103759 -9.29704475 0.62087357 C-6.17243112 -0.06453601 -3.19885933 0.00040823 0 0 Z " fill="#2B9ADF" transform="translate(54.040313720703125,16.87415885925293)"/>
<path d="M0 0 C6.91647225 9.221963 6.43104171 18.89135339 6.38768005 29.95309448 C6.39185598 31.68544202 6.39733491 33.41778683 6.40399987 35.15012658 C6.41843929 39.89727143 6.41421442 44.64424245 6.40683305 49.39139676 C6.40209997 54.51625776 6.41461249 59.64108123 6.42485046 64.76593018 C6.4420411 74.80086591 6.44287791 84.83573904 6.43763756 94.87068568 C6.43359508 103.02780168 6.43504035 111.18489919 6.44038582 119.34201431 C6.44113424 120.50327067 6.44188266 121.66452703 6.44265376 122.86097298 C6.44418525 125.22011613 6.4457236 127.57925928 6.44726873 129.93840243 C6.46099476 152.05899266 6.45555538 174.17954752 6.44408352 196.30013694 C6.43415132 216.53239654 6.44709143 236.76456469 6.47101771 256.99681018 C6.49540657 277.77695578 6.50501708 298.55705878 6.49836498 319.3372184 C6.49487226 331.00142903 6.49710838 342.66556933 6.51461601 354.32976913 C6.52933529 364.25935881 6.52997695 374.18882862 6.5125451 384.11841594 C6.5040305 389.18308273 6.50189693 394.24753537 6.51719666 399.31219101 C6.53103981 403.9521748 6.52628527 408.59176089 6.50695742 413.23172165 C6.50319598 414.90660246 6.50612355 416.58151509 6.51656907 418.25636755 C6.57530642 428.39888419 5.60898916 436.78202167 1 446 C0.77049681 448.204364 0.58924067 450.41392173 0.4375 452.625 C0.31181641 454.40777344 0.31181641 454.40777344 0.18359375 456.2265625 C0.12300781 457.14179688 0.06242187 458.05703125 0 459 C-0.83402344 459.02578125 -1.66804688 459.0515625 -2.52734375 459.078125 C-9.03324966 459.40602862 -14.29087249 460.03093535 -20.09765625 463.0625 C-24.34514046 465.15571604 -28.32173709 465.12759598 -33.01796722 465.13422108 C-34.08317297 465.13774942 -34.08317297 465.13774942 -35.16989803 465.14134905 C-37.5616449 465.14803307 -39.95333736 465.147581 -42.34509277 465.14717102 C-44.07240968 465.15047003 -45.79972581 465.15419567 -47.52704096 465.1583125 C-52.28349836 465.16833661 -57.03994314 465.17204996 -61.79640961 465.17470181 C-66.92272987 465.17860369 -72.04904012 465.18818216 -77.175354 465.19691467 C-89.56094821 465.21668319 -101.94654323 465.22674615 -114.33214927 465.23564246 C-120.16432991 465.24002505 -125.99650965 465.24539196 -131.82868958 465.25063133 C-151.21591758 465.2676446 -170.60314501 465.28213857 -189.99037933 465.28938007 C-195.02223206 465.29128998 -200.05408479 465.29321031 -205.0859375 465.29516602 C-206.96191021 465.29589163 -206.96191021 465.29589163 -208.87578136 465.2966319 C-229.13354247 465.30493143 -249.39124452 465.33026663 -269.64897984 465.36274669 C-290.44591383 465.39581945 -311.24281781 465.41382907 -332.03977823 465.41702431 C-343.71696032 465.41918929 -355.3940563 465.42793612 -367.07121277 465.45348549 C-377.01662004 465.47519547 -386.96192029 465.48324143 -396.90734857 465.47351871 C-401.98021418 465.46897481 -407.05285897 465.47086562 -412.12569427 465.49028015 C-416.77455087 465.50791807 -421.42302567 465.5069089 -426.07188636 465.49138286 C-427.74895905 465.48900775 -429.42605822 465.49332531 -431.10309047 465.50521151 C-440.56651069 465.56810164 -449.2673812 465.16155223 -458 461 C-458.66 460.34 -459.32 459.68 -460 459 C-412.15 458.67 -364.3 458.34 -315 458 C-342.06 430.94 -369.12 403.88 -397 376 C-396.34 375.67 -395.68 375.34 -395 375 C-394.28199219 375.30035156 -393.56398438 375.60070312 -392.82421875 375.91015625 C-386.53737377 378.33620016 -378.37196272 378.05292255 -371.97265625 376.0546875 C-367.11574776 373.73213577 -363.60809025 370.94634871 -360 367 C-359.34 367 -358.68 367 -358 367 C-357.01 370.3 -356.02 373.6 -355 377 C-350.05 377 -345.1 377 -340 377 C-340.01781531 369.74043488 -340.05688419 362.48170369 -340.13209057 355.22249031 C-340.16619992 351.8507126 -340.19144512 348.47938019 -340.19555664 345.10742188 C-340.20488883 341.2194882 -340.24597833 337.33295178 -340.29296875 333.4453125 C-340.2890361 332.25011993 -340.28510345 331.05492737 -340.28105164 329.82351685 C-340.44042866 320.57049764 -342.48570343 313.15736889 -349.25 306.5625 C-353.90695524 302.97866923 -359.27871591 300.98318119 -365.16015625 301.01953125 C-371.27013457 299.39724809 -374.67263821 294.99513189 -378.9375 290.5 C-379.81212891 289.60667969 -380.68675781 288.71335937 -381.58789062 287.79296875 C-388 281.19565403 -388 281.19565403 -388 280 C-386.76137207 280.01571045 -385.52274414 280.0314209 -384.24658203 280.04760742 C-379.56110383 280.10274722 -374.87565293 280.13664913 -370.18994141 280.16479492 C-368.17882432 280.17969327 -366.16773859 280.20001888 -364.15673828 280.22631836 C-348.02465333 280.43169438 -332.18016666 279.76566606 -316.8125 274.3125 C-316.07894287 274.05831299 -315.34538574 273.80412598 -314.58959961 273.54223633 C-291.71925376 265.29330774 -274.70572969 250.19160777 -264.1171875 228.171875 C-257.40400619 213.64310711 -253.39838857 199.12788416 -251.30859375 183.28027344 C-251.02786944 181.205934 -250.70378978 179.13757821 -250.375 177.0703125 C-245.63134646 144.32592626 -249.37756297 112.95999897 -263 83 C-258.89222068 84.62565013 -256.14101733 87.58743838 -253.09765625 90.671875 C-252.53807724 91.23191223 -251.97849823 91.79194946 -251.40196228 92.36895752 C-250.22043307 93.55350254 -249.04132998 94.74047181 -247.86450195 95.9296875 C-246.07744294 97.73490522 -244.28261019 99.53208938 -242.48632812 101.328125 C-241.33546661 102.48390631 -240.18506123 103.64014201 -239.03515625 104.796875 C-238.50479263 105.32835144 -237.97442902 105.85982788 -237.42799377 106.40740967 C-227.37528961 116.58654976 -227.37528961 116.58654976 -227.3984375 121.36328125 C-227.38530518 122.15903564 -227.37217285 122.95479004 -227.35864258 123.7746582 C-227.36404053 124.612146 -227.36943848 125.44963379 -227.375 126.3125 C-226.83704958 148.80954519 -221.95993746 168.5967627 -205.3125 184.8125 C-191.9938136 196.19651483 -175.07258772 199.05947043 -158.08154297 198.17285156 C-153.18052931 197.76587084 -148.63950198 196.57810797 -144 195 C-142.66001953 194.56494141 -142.66001953 194.56494141 -141.29296875 194.12109375 C-136.10989997 192.26389219 -132.33007327 190.01285962 -128.375 186.171875 C-127 185 -127 185 -125 185 C-124.61521484 184.15695313 -124.61521484 184.15695313 -124.22265625 183.296875 C-122.85074338 180.71960738 -121.23635416 178.54832724 -119.4375 176.25 C-118.81746094 175.45078125 -118.19742187 174.6515625 -117.55859375 173.828125 C-117.04425781 173.22484375 -116.52992188 172.6215625 -116 172 C-115.67 172 -115.34 172 -115 172 C-113.73846124 190.75487621 -118.91662377 209.39227379 -129.953125 224.7109375 C-140.63603798 236.65785927 -158.68796159 242.27355978 -174.2109375 243.18945312 C-177.47643718 243.26654422 -180.73373878 243.27327502 -184 243.25 C-185.08539063 243.25773438 -186.17078125 243.26546875 -187.2890625 243.2734375 C-195.65794112 243.25346404 -204.01360663 242.66213112 -212 240 C-212 252.87 -212 265.74 -212 279 C-206.91627502 279.72624643 -202.16024897 280.1828262 -197.06640625 280.23828125 C-196.31990814 280.24816574 -195.57341003 280.25805023 -194.80429077 280.26823425 C-161.2321525 280.62050201 -129.13888068 277.47330089 -103.8515625 252.9375 C-75.76549985 224.60721072 -71.67978971 181.60465508 -71.75341797 143.82226562 C-71.89089624 119.97411131 -77.09549761 99.68371776 -89 79 C-89.33 78.34 -89.66 77.68 -90 77 C-88.68 77.66 -87.36 78.32 -86 79 C-86 79.66 -86 80.32 -86 81 C-85.40759521 81.2671582 -84.81519043 81.53431641 -84.20483398 81.80957031 C-81.9666215 83.01802166 -80.50721027 84.24858328 -78.72265625 86.046875 C-78.12646484 86.645 -77.53027344 87.243125 -76.91601562 87.859375 C-76.30435547 88.48328125 -75.69269531 89.1071875 -75.0625 89.75 C-74.45470703 90.3584375 -73.84691406 90.966875 -73.22070312 91.59375 C-70.52196721 94.31868723 -67.97456473 97.03141764 -65.55859375 100.015625 C-63.56438116 102.34169892 -61.75911426 104.13282257 -59.44775391 106.0871582 C-54.50277687 110.37030511 -49.89608894 114.96016932 -45.27734375 119.58984375 C-44.37303116 120.49319962 -43.46871857 121.39655548 -42.53700256 122.32728577 C-40.63565057 124.22796068 -38.73532447 126.12959608 -36.83666992 128.03295898 C-34.42414139 130.45118392 -32.00714919 132.86488958 -29.58878231 135.27727413 C-27.25335425 137.60818401 -24.92177823 139.94293956 -22.58984375 142.27734375 C-21.73237045 143.13279282 -20.87489716 143.98824188 -19.99143982 144.86961365 C-15.72374512 149.15382413 -11.59015745 153.48704304 -7.68238831 158.10353088 C-5.55815521 160.49806873 -3.26342415 162.73657585 -1 165 C-0.67 110.55 -0.34 56.1 0 0 Z " fill="#2489CA" transform="translate(493,36)"/>
<path d="M0 0 C1.07668945 -0.01023193 2.15337891 -0.02046387 3.26269531 -0.03100586 C22.06726518 0.17476805 40.87466983 7.52794123 54.72265625 20.328125 C75.7642165 42.22107786 82.22084518 71.40633124 82 101 C81.99689819 101.74251007 81.99379639 102.48502014 81.99060059 103.25003052 C81.80548227 141.17233138 75.60540092 179.80184401 48.3125 208.25 C25.41199104 230.16341806 -4.24194052 234.6835156 -34.5625 234.75 C-35.79398773 234.75551376 -35.79398773 234.75551376 -37.050354 234.76113892 C-39.42575817 234.76668934 -41.8004454 234.75583575 -44.17578125 234.73828125 C-45.24042854 234.73942932 -45.24042854 234.73942932 -46.32658386 234.74060059 C-51.19359066 234.67306215 -54.34982443 233.83755016 -59.25 232.4375 C-59.25 219.5675 -59.25 206.6975 -59.25 193.4375 C-54.3 194.0975 -49.35 194.7575 -44.25 195.4375 C-21.75838413 196.46408828 0.13804268 195.87386823 18.375 181 C29.66500855 169.98293671 36.39428564 152.02645722 36.99609375 136.3046875 C36.99942742 133.00435449 36.9353238 129.73214534 36.75 126.4375 C36.30269531 127.02917969 35.85539062 127.62085938 35.39453125 128.23046875 C25.87295685 140.67551163 15.56572731 149.39168495 -0.2421875 152.1171875 C-18.39388602 154.05022552 -36.17101601 151.91431568 -50.93359375 140.33203125 C-65.77921624 127.51582521 -73.70810274 109.94250038 -75.25 90.4375 C-76.27639146 65.78577649 -73.46399886 42.43173618 -56.71875 23.03515625 C-41.11847854 6.62031365 -22.13837658 0.16172006 0 0 Z " fill="#FDFEFE" transform="translate(340.25,82.5625)"/>
<path d="M0 0 C1.64162109 -0.02416992 1.64162109 -0.02416992 3.31640625 -0.04882812 C23.65919969 -0.06086528 41.56331765 8.17578536 56.25 21.9375 C79.10136121 45.65938925 82.78413388 78.13002477 82.37890625 109.5390625 C81.46533946 146.53163123 73.05033086 184.51699037 45.4375 211 C25.07915711 228.64389717 -2.55508759 234.74107627 -28.83276367 234.51831055 C-31.07026525 234.49993623 -33.3073522 234.49780263 -35.54492188 234.49804688 C-56.74074777 234.44675223 -56.74074777 234.44675223 -58.875 232.3125 C-58.96365208 229.4281618 -58.99021296 226.56787842 -58.97265625 223.68359375 C-58.9712413 222.81936295 -58.96982635 221.95513214 -58.96836853 221.06471252 C-58.96275239 218.29310708 -58.95019719 215.5215812 -58.9375 212.75 C-58.93248708 210.8756522 -58.92792381 209.00130315 -58.92382812 207.12695312 C-58.91277772 202.52210456 -58.8955023 197.91731579 -58.875 193.3125 C-57.48788818 193.52362427 -57.48788818 193.52362427 -56.07275391 193.73901367 C-47.4234068 194.98475244 -39.00450661 195.65056807 -30.25 195.625 C-29.13882813 195.64111328 -28.02765625 195.65722656 -26.8828125 195.67382812 C-10.09236192 195.68359001 7.41413161 190.83098765 20.16015625 179.50390625 C28.83911934 170.32900241 33.74559569 157.3229018 35.75 145 C35.87479736 144.26595947 35.99959473 143.53191895 36.12817383 142.77563477 C37.08526775 136.97781763 37.75755045 131.17902205 38.125 125.3125 C37.465 125.3125 36.805 125.3125 36.125 125.3125 C35.75375 126.39917969 35.75375 126.39917969 35.375 127.5078125 C31.02835592 137.26059515 20.65011584 145.29607293 10.875 149.1875 C-5.0829757 153.97489271 -26.91258782 154.04830211 -41.875 146.3125 C-58.54399403 136.93037068 -67.5356646 122.16506987 -72.875 104.3125 C-78.62639675 81.44385101 -75.98537025 55.0980479 -64.875 34.3125 C-54.5314641 17.95343363 -39.5215637 6.46563428 -20.72509766 1.77612305 C-13.78807427 0.23203808 -7.0901191 -0.02073134 0 0 Z " fill="#FDFEFE" transform="translate(162.875,82.6875)"/>
<path d="M0 0 C10.0672368 5.45859556 16.21556167 13.72451814 20.1640625 24.421875 C23.33625894 35.62832597 23.59221332 46.9670369 18.0625 57.4375 C12.52493878 65.70080378 4.73412806 71.21027966 -4.9375 73.4375 C-7.63322644 73.64527871 -10.18569169 73.77222303 -12.875 73.75 C-13.93050049 73.74262817 -13.93050049 73.74262817 -15.00732422 73.73510742 C-22.19757018 73.57256418 -27.95774951 72.15491482 -33.48828125 67.23046875 C-40.62089776 58.40601867 -42.13743809 49.2697223 -42.1875 38.375 C-42.2184375 36.73241211 -42.2184375 36.73241211 -42.25 35.05664062 C-42.30226223 24.0881056 -40.16771673 14.91598284 -32.9375 6.4375 C-23.91485729 -1.82441009 -11.6661307 -4.74381929 0 0 Z " fill="#2F92CC" transform="translate(175.9375,123.5625)"/>
<path d="M0 0 C10.38849995 6.18486149 15.82874835 15.04216129 19.703125 26.3203125 C22.08843202 36.53376348 22.16497597 48.8784688 16.5625 58 C11.82652145 65.35556669 3.8531728 70.41140144 -4.4375 73 C-7.27176623 73.19006914 -9.98289731 73.27968115 -12.8125 73.25 C-13.54210937 73.25773437 -14.27171875 73.26546875 -15.0234375 73.2734375 C-23.61055365 73.24276923 -29.17131776 71.10679191 -35.421875 65.20703125 C-42.5844628 57.36427523 -43.82339923 46.87467795 -43.75 36.625 C-43.74436035 35.79427979 -43.7387207 34.96355957 -43.73291016 34.10766602 C-43.51255528 22.92738338 -40.79996497 12.13387342 -32.48046875 4.11328125 C-23.43503524 -3.02967103 -10.64862054 -4.9033183 0 0 Z " fill="#3092CC" transform="translate(354.4375,124)"/>
<path d="M0 0 C5.65413231 4.11016021 9.00041423 9.34288112 11 16 C11.51335643 20.45977261 11.46775024 24.86342525 11.390625 29.34765625 C11.38496521 30.60009628 11.37930542 31.85253632 11.37347412 33.14292908 C11.35498158 36.44265041 11.31916413 39.7415626 11.2746582 43.04101562 C11.23344329 46.41982212 11.21540771 49.79874796 11.1953125 53.17773438 C11.15137078 59.78550866 11.08240632 66.392598 11 73 C6.05 73 1.1 73 -4 73 C-4.99 69.7 -5.98 66.4 -7 63 C-7.64066406 63.54269531 -8.28132813 64.08539063 -8.94140625 64.64453125 C-17.78539803 71.95960642 -23.76897645 74.61900352 -35.3984375 74.34375 C-41.9925493 73.71437707 -45.88066858 71.44998962 -50.375 66.6875 C-55.55199572 60.01930442 -55.86785524 52.15783928 -55 44 C-53.35534539 38.31846588 -50.10617991 34.05497943 -45 31 C-36.15404947 26.60670913 -27.72067885 25.82799495 -18 25.9375 C-17.22527344 25.94201172 -16.45054688 25.94652344 -15.65234375 25.95117188 C-13.76819476 25.96280242 -11.88408635 25.98073094 -10 26 C-10.25620684 24.3934324 -10.53055871 22.7897517 -10.8125 21.1875 C-10.96332031 20.29417969 -11.11414063 19.40085937 -11.26953125 18.48046875 C-12.06473447 15.78017975 -12.82690155 14.73519448 -15 13 C-19.94118525 10.52940737 -25.68026657 11.60927147 -30.7734375 13.1171875 C-34.23008206 14.30322533 -37.59129008 15.66325101 -41 17 C-43.31 12.38 -45.62 7.76 -48 3 C-33.89307079 -4.44532375 -14.7370526 -8.72350924 0 0 Z " fill="#FCFDFE" transform="translate(142,340)"/>
<path d="M0 0 C7.52868125 5.01438581 10.96998442 12.452922 13.7578125 20.81640625 C13.7578125 27.08640625 13.7578125 33.35640625 13.7578125 39.81640625 C-1.7521875 39.81640625 -17.2621875 39.81640625 -33.2421875 39.81640625 C-30.55367163 50.0761536 -30.55367163 50.0761536 -23.40234375 56.95703125 C-13.29740752 60.97707821 0.00529347 55.88148366 9.7578125 52.81640625 C9.7578125 58.09640625 9.7578125 63.37640625 9.7578125 68.81640625 C-3.04239304 74.10715787 -17.92149426 76.79779649 -31.4921875 72.19140625 C-41.37982707 67.76595255 -48.23116369 60.91079918 -52.6171875 51.00390625 C-56.5118518 39.2544568 -55.6217385 24.8949191 -50.2421875 13.81640625 C-46.11126991 5.61911665 -39.89496767 0.12995884 -31.37890625 -3.35546875 C-21.2379004 -6.03279533 -9.29646361 -4.90736668 0 0 Z " fill="#FCFDFE" transform="translate(342.2421875,340.18359375)"/>
<path d="M0 0 C0.83233154 0.00797607 1.66466309 0.01595215 2.5222168 0.02416992 C11.51731211 0.23160766 18.7031636 2.26185701 26.6875 6.375 C25.90460425 8.69081759 25.11174269 11.00232941 24.3125 13.3125 C23.97992188 14.3015332 23.97992188 14.3015332 23.640625 15.31054688 C21.9140625 20.26171875 21.9140625 20.26171875 19.6875 21.375 C17.49850276 20.62473885 15.33519008 19.79891048 13.1875 18.9375 C7.37986174 16.72659942 1.91567062 15.2125713 -4.3125 16.375 C-5.3025 17.035 -6.2925 17.695 -7.3125 18.375 C-7.43463894 20.71648231 -7.43463894 20.71648231 -6.3125 23.375 C-2.52620726 26.29360065 1.39736093 28.26763272 5.75390625 30.1875 C15.30056321 34.41496064 23.48836889 38.12306728 27.6875 48.375 C28.84052368 56.65249629 27.62723221 63.57192576 22.6875 70.375 C17.15778152 76.0830965 9.15325135 78.45413336 1.3828125 78.7734375 C-0.47393587 78.78545689 -2.33091184 78.77719156 -4.1875 78.75 C-5.15260498 78.74347412 -6.11770996 78.73694824 -7.11206055 78.73022461 C-23.26130937 78.42619063 -23.26130937 78.42619063 -27.3125 74.375 C-27.38575168 71.51232433 -27.40488205 68.674281 -27.375 65.8125 C-27.37048828 65.00619141 -27.36597656 64.19988281 -27.36132812 63.36914062 C-27.34950518 61.37106244 -27.33156914 59.37302217 -27.3125 57.375 C-26.23613281 57.7359375 -25.15976562 58.096875 -24.05078125 58.46875 C-13.67718522 61.81414828 -4.17800411 64.09137603 6.6875 61.375 C6.6875 58.405 6.6875 55.435 6.6875 52.375 C6.03265625 52.12105469 5.3778125 51.86710937 4.703125 51.60546875 C-23.27938395 40.18773518 -23.27938395 40.18773518 -27.72265625 29.68359375 C-29.26712817 23.63867386 -29.38321916 17.68775338 -26.75 12 C-18.79594679 3.43409654 -11.83223498 -0.20489237 0 0 Z " fill="#FBFCFD" transform="translate(392.3125,335.625)"/>
<path d="M0 0 C147.51 0 295.02 0 447 0 C437.7797882 6.91515885 428.11330639 6.43105204 417.05363464 6.38768005 C415.3219998 6.39185599 413.59036768 6.39733493 411.85874063 6.40399987 C407.11352636 6.41843931 402.36848601 6.41421441 397.62326229 6.40683305 C392.50042716 6.40209994 387.37762958 6.41461256 382.25480652 6.42485046 C372.22354578 6.4420414 362.19234768 6.44287779 352.16107603 6.43763756 C344.0063523 6.43359491 335.85164706 6.43504056 327.69692421 6.44038582 C325.95547275 6.44150845 325.95547275 6.44150845 324.17884046 6.44265376 C321.82026304 6.44418526 319.46168562 6.4457236 317.1031082 6.44726873 C294.9872566 6.46099503 272.87144038 6.45555533 250.75558958 6.44408352 C230.53047205 6.43415269 210.30544603 6.44708902 190.08034261 6.47101771 C169.30584225 6.49541092 148.53138449 6.50501593 127.75687009 6.49836498 C116.09653997 6.49487305 104.43628021 6.49710311 92.77596092 6.51461601 C82.84896168 6.52934079 72.92208234 6.52996983 62.99508544 6.5125451 C57.93232 6.50403477 52.86976872 6.50188646 47.80701447 6.51719666 C43.16759526 6.53105269 38.52857351 6.52626872 33.88917724 6.50695742 C32.21562452 6.5031999 30.5420399 6.50611218 28.86851563 6.51656907 C19.41536341 6.5714112 10.72346868 6.15310117 2 2 C1.34 1.34 0.68 0.68 0 0 Z " fill="#000000" transform="translate(33,495)"/>
<path d="M0 0 C0.70181396 0.00604248 1.40362793 0.01208496 2.12670898 0.01831055 C10.2652098 0.17357158 16.80496281 1.82359961 24.125 5.25 C22.56051329 10.8643991 20.96104813 16.11810338 18.125 21.25 C17.45855469 21.0334375 16.79210937 20.816875 16.10546875 20.59375 C8.21432814 18.20985298 0.33687978 16.21927225 -7.375 19.9375 C-12.19876578 24.39948334 -13.6554161 28.59367267 -14.04296875 35.046875 C-14.12178699 46.13222887 -14.12178699 46.13222887 -10 56.1875 C-6.46758367 59.61602174 -3.64740424 60.54108278 1.25 60.5625 C8.7852655 60.4315395 15.21759209 58.05689721 22.125 55.25 C22.28725719 58.00236274 22.4059328 60.74517476 22.5 63.5 C22.55027344 64.27730469 22.60054687 65.05460937 22.65234375 65.85546875 C22.71061175 68.12792061 22.67681999 70.04272005 22.125 72.25 C14.710662 78.84052266 5.25114536 78.65708197 -4.21875 78.49609375 C-13.82867381 77.84927195 -21.2171733 74.57323051 -27.59765625 67.28125 C-35.82456619 56.12337705 -36.32128681 41.61080306 -34.875 28.25 C-32.56780672 18.02657024 -27.58903913 10.20683276 -18.875 4.375 C-13.0202234 0.76623684 -6.76644955 -0.09371814 0 0 Z " fill="#FBFCFD" transform="translate(199.875,335.75)"/>
<path d="M0 0 C6.91647225 9.221963 6.43104171 18.89135339 6.38768005 29.95309448 C6.39185598 31.68544202 6.39733491 33.41778683 6.40399987 35.15012658 C6.41843929 39.89727143 6.41421442 44.64424245 6.40683305 49.39139676 C6.40209997 54.51625776 6.41461249 59.64108123 6.42485046 64.76593018 C6.4420411 74.80086591 6.44287791 84.83573904 6.43763756 94.87068568 C6.43359508 103.02780168 6.43504035 111.18489919 6.44038582 119.34201431 C6.44113424 120.50327067 6.44188266 121.66452703 6.44265376 122.86097298 C6.44418525 125.22011613 6.4457236 127.57925928 6.44726873 129.93840243 C6.46099476 152.05899266 6.45555538 174.17954752 6.44408352 196.30013694 C6.43415132 216.53239654 6.44709143 236.76456469 6.47101771 256.99681018 C6.49540657 277.77695578 6.50501708 298.55705878 6.49836498 319.3372184 C6.49487226 331.00142903 6.49710838 342.66556933 6.51461601 354.32976913 C6.52933529 364.25935881 6.52997695 374.18882862 6.5125451 384.11841594 C6.5040305 389.18308273 6.50189693 394.24753537 6.51719666 399.31219101 C6.53103981 403.9521748 6.52628527 408.59176089 6.50695742 413.23172165 C6.50319598 414.90660246 6.50612355 416.58151509 6.51656907 418.25636755 C6.56924022 427.35139734 6.35653526 435.73701823 2 444 C1.34 444.66 0.68 445.32 0 446 C0 298.82 0 151.64 0 0 Z " fill="#000000" transform="translate(493,36)"/>
<path d="M0 0 C0.66 0 1.32 0 2 0 C3.05932304 18.16542846 -1.51989864 37.07275285 -12.7890625 51.55859375 C-17.74431324 57.03038123 -23.94362399 62.53847349 -31 65 C-35.0325227 64.61610416 -36.93298876 63.55019972 -39.70703125 60.6484375 C-40.37669922 59.96136719 -41.04636719 59.27429688 -41.73632812 58.56640625 C-42.42146484 57.84324219 -43.10660156 57.12007813 -43.8125 56.375 C-48.42875791 51.57762575 -53.07837496 46.9768499 -58.1315918 42.63916016 C-60.88819235 40.22078617 -63.44183913 37.62475924 -66 35 C-70.03765676 30.90018601 -74.1470207 26.98943618 -78.57421875 23.3046875 C-80 22 -80 22 -81 20 C-76.90198823 20.57456505 -73.36425912 21.54146834 -69.515625 23.0390625 C-62.53563075 25.4210556 -56.06708698 25.52448887 -48.75 25.375 C-46.92855469 25.37306641 -46.92855469 25.37306641 -45.0703125 25.37109375 C-31.67212558 25.23973898 -20.16600929 22.04795532 -10 13 C-6.03936259 8.9599911 -2.88727853 4.86278489 0 0 Z " fill="#2894CD" transform="translate(199,208)"/>
<path d="M0 0 C5.28 0 10.56 0 16 0 C17.56453195 5.47586183 18.22137642 8.57627762 18 14 C18.66 14 19.32 14 20 14 C20.185625 13.29875 20.37125 12.5975 20.5625 11.875 C23.37254511 6.25490979 29.11299087 1.99936159 35 0 C39.01681977 -0.28169905 42.98487317 -0.32470699 47 0 C47.495 0.495 47.495 0.495 48 1 C47.96148255 3.45622816 47.85466287 5.86459438 47.6875 8.3125 C47.65205078 8.98990234 47.61660156 9.66730469 47.58007812 10.36523438 C47.3414078 14.00940958 46.9638314 16.88191668 45 20 C44.3709375 19.95359375 43.741875 19.9071875 43.09375 19.859375 C36.79309016 19.59368452 32.16767301 20.23334056 27 24 C23.13226106 27.77152653 20.90073705 30.93373377 20.79467773 36.35791016 C20.77473251 37.25869293 20.75478729 38.15947571 20.73423767 39.08755493 C20.70916893 40.54855118 20.70916893 40.54855118 20.68359375 42.0390625 C20.66281265 43.03505463 20.64203156 44.03104675 20.62062073 45.05722046 C20.55510958 48.24640854 20.49623296 51.43568058 20.4375 54.625 C20.39431627 56.78386293 20.35070203 58.9427173 20.30664062 61.1015625 C20.19861451 66.40095678 20.0995526 71.70041257 20 77 C13.4 77 6.8 77 0 77 C0 51.59 0 26.18 0 0 Z " fill="#FDFDFE" transform="translate(235,336)"/>
<path d="M0 0 C3.30679448 3.51362523 3.37461386 6.16173099 3.37358761 10.89582157 C3.37753913 11.59275135 3.38149065 12.28968112 3.38556191 13.00772998 C3.39520569 15.35472639 3.38340192 17.70113028 3.37181091 20.04811096 C3.37438445 21.74314376 3.37828444 23.43817498 3.3834005 25.13320202 C3.3937022 29.80044201 3.38535238 34.46749375 3.37410367 39.13472474 C3.36526995 44.1649143 3.37374753 49.19507667 3.38031006 54.2252655 C3.38947811 62.94600194 3.38812884 71.66668579 3.38012505 80.38742256 C3.36890632 93.00819778 3.37792347 105.62889788 3.39268685 118.24966656 C3.41647615 138.74074321 3.42982672 159.2318106 3.43383789 179.72290039 C3.43408276 180.94988626 3.43432763 182.17687212 3.43457992 183.44103938 C3.43712474 197.1241249 3.43769327 210.80720971 3.43664551 224.49029541 C3.4363125 229.44836426 3.4360271 234.4064331 3.43579102 239.36450195 C3.43572823 240.5878738 3.43566544 241.81124565 3.43560075 243.07168937 C3.43499577 263.47652321 3.4498852 283.88131434 3.47662407 304.28613037 C3.49242937 316.87268387 3.49468686 329.45909951 3.47949005 342.04565447 C3.47002199 350.67429778 3.47478517 359.30285806 3.49070387 367.93149162 C3.49939656 372.9090394 3.50154246 377.88636652 3.48617744 382.86390305 C3.472212 387.42451803 3.47674087 391.98473416 3.49569846 396.54532766 C3.49929901 398.19142206 3.49619564 399.83754834 3.48554879 401.48361225 C3.40824054 414.30423316 4.96227689 425.22072012 14 435 C15.64864545 436.35555293 17.31003995 437.69631653 19 439 C19.33 439.99 19.66 440.98 20 442 C22.50447516 443.21869929 22.50447516 443.21869929 25 444 C25 444.66 25 445.32 25 446 C17.08 446 9.16 446 1 446 C-0.05366444 424.8217133 -0.13871238 403.70421555 -0.11606562 382.50576079 C-0.11169238 377.35754954 -0.11321235 372.2093393 -0.1139679 367.06112671 C-0.11448883 358.17050307 -0.11138737 349.27988684 -0.10573006 340.38926506 C-0.09755621 327.53537775 -0.09499385 314.68149398 -0.09374207 301.82760436 C-0.09156073 280.96620362 -0.0849257 260.10480681 -0.07543945 239.2434082 C-0.06624147 218.99471049 -0.05917235 198.74601384 -0.05493164 178.49731445 C-0.05466892 177.2463574 -0.05440619 175.99540035 -0.05413551 174.70653551 C-0.05283034 168.43000738 -0.05156667 162.15347924 -0.05032361 155.8769511 C-0.03997963 103.91796468 -0.02238648 51.95898253 0 0 Z " fill="#5D5D5D" transform="translate(15,49)"/>
<path d="M0 0 C10.56 0 21.12 0 32 0 C29.90091082 1.04954459 27.79818896 2.09329958 25.66796875 3.078125 C15.70081992 7.78701421 9.02722619 13.32977898 4.91741538 23.74299401 C2.05050834 32.33340576 1.4273507 40.19282994 1.48101807 49.19233704 C1.47512951 50.68436771 1.46749558 52.17639232 1.458287 53.66840619 C1.43817421 57.73230804 1.44254165 61.79585787 1.45119452 65.85978639 C1.45616475 70.25568457 1.4380231 74.65149717 1.42277527 79.04736328 C1.39952144 86.65153828 1.39071214 94.25561807 1.39188385 101.85982704 C1.39355678 112.85403578 1.37318087 123.84811801 1.34752855 134.84229293 C1.30649735 152.6822093 1.28314729 170.52210284 1.27099609 188.36206055 C1.25915856 205.68565057 1.23894436 223.00919763 1.20751953 240.33276367 C1.20558343 241.40167968 1.20364733 242.47059569 1.20165256 243.57190309 C1.19188762 248.93466668 1.18195857 254.29742995 1.17194796 259.66019309 C1.08919204 304.10677444 1.03516455 348.55335722 1 393 C0.67 393 0.34 393 0 393 C0 263.31 0 133.62 0 0 Z " fill="#D1D1D1" transform="translate(16,19)"/>
<path d="M0 0 C0.35480978 4.98704856 0.58540154 8.82919691 -1.6875 13.375 C-6.01757141 18.2902162 -9.24872757 20.77812319 -15.875 21.3125 C-19.17287177 21.28213286 -20.00374881 20.99760714 -22.9375 19.125 C-25.5910687 16.39102013 -25.95036258 15.52615669 -26.3125 11.6875 C-25.9409847 7.30361947 -25.20708311 5.96038441 -22 3 C-15.3505816 -1.28518075 -7.61631482 -0.26465959 0 0 Z " fill="#1E7CBB" transform="translate(133,378)"/>
<path d="M0 0 C3.36649582 2.42700861 5.38094542 4.97940818 6.6875 8.9375 C6.6875 10.9175 6.6875 12.8975 6.6875 14.9375 C-2.5525 14.9375 -11.7925 14.9375 -21.3125 14.9375 C-20.18534861 5.9202889 -20.18534861 5.9202889 -17.375 3 C-16.85035156 2.43410156 -16.32570313 1.86820312 -15.78515625 1.28515625 C-11.48485417 -2.65013345 -5.16714472 -1.65738604 0 0 Z " fill="#2A81B8" transform="translate(330.3125,352.0625)"/>
<path d="M0 0 C2.2309733 1.95210164 3.15512207 2.90813786 4 5.75 C4.09071384 8.41962585 4.02977977 11.07794237 4 13.75 C-15.44176244 15.06517061 -15.44176244 15.06517061 -21.46484375 11.96875 C-23.59490601 10.00784989 -25.36918614 8.13759676 -27 5.75 C-20.84389867 -1.34069097 -8.50176924 -3.54240385 0 0 Z " fill="#1F81BE" transform="translate(128,352.25)"/>
<path d="M0 0 C10.56 0 21.12 0 32 0 C29.90091082 1.04954459 27.79818896 2.09329958 25.66796875 3.078125 C14.62181922 8.29677832 8.4859386 14.6126174 4 26 C3.34 26.33 2.68 26.66 2 27 C1.34444881 29.52733235 1.34444881 29.52733235 1 32 C0.67 32 0.34 32 0 32 C0 21.44 0 10.88 0 0 Z " fill="#F7F8F8" transform="translate(16,19)"/>
<path d="M0 0 C0.33 0 0.66 0 1 0 C1 8.91 1 17.82 1 27 C-9.23 27 -19.46 27 -30 27 C-30 26.67 -30 26.34 -30 26 C-29.3709375 25.84144531 -28.741875 25.68289063 -28.09375 25.51953125 C-18.82117249 22.99191599 -10.92340901 18.77806863 -5 11 C-3.08805771 7.42235042 -1.48115857 3.7745654 0 0 Z " fill="#3C474E" transform="translate(492,468)"/>
<path d="M0 0 C1.89087632 2.83631448 2.42594628 4.40500778 3.1875 7.625 C5.33604227 15.12297403 10.33380834 20.78142656 16 26 C17.32 26.66 18.64 27.32 20 28 C13.4 28 6.8 28 0 28 C0 18.76 0 9.52 0 0 Z " fill="#FAFAFA" transform="translate(16,467)"/>
<path d="M0 0 C7.26 0 14.52 0 22 0 C22 6.27 22 12.54 22 19 C21.34 19 20.68 19 20 19 C18.64304027 17.15692063 17.3400442 15.27398975 16.0625 13.375 C11.73986174 7.22588215 6.95969401 3.96600044 0 1 C0 0.67 0 0.34 0 0 Z " fill="#F9F9F9" transform="translate(471,19)"/>
<path d="M0 0 C3.65141356 1.5255906 5.90118112 3.72480909 8.625 6.5625 C11.51070681 9.69042054 11.51070681 9.69042054 15 12 C14.67 16.62 14.34 21.24 14 26 C11.50976562 23.8515625 11.50976562 23.8515625 9.01953125 21.703125 C6.97069634 19.8979731 6.97069634 19.8979731 4.34375 18.3125 C1.13524881 15.14677883 1.00229719 12.04337861 0.6875 7.75 C0.61466797 7.00492187 0.54183594 6.25984375 0.46679688 5.4921875 C0.29094163 3.66329296 0.14270837 1.83177909 0 0 Z " fill="#1A73B0" transform="translate(151,350)"/>
<path d="M0 0 C0.33 0 0.66 0 1 0 C1.0093457 1.1238208 1.01869141 2.2476416 1.02832031 3.40551758 C1.06855874 7.62351365 1.1344069 11.84080599 1.20751953 16.05834961 C1.23553465 17.87466305 1.25684474 19.691094 1.27099609 21.50756836 C1.3854378 35.37408806 2.11656447 47.30561592 12 58 C13.64864545 59.35555293 15.31003995 60.69631653 17 62 C17.33 62.99 17.66 63.98 18 65 C20.50447516 66.21869929 20.50447516 66.21869929 23 67 C23 67.66 23 68.32 23 69 C17.56599789 68.64941922 17.56599789 68.64941922 15 68 C13.75 66.0625 13.75 66.0625 13 64 C12.38769531 63.69449219 11.77539062 63.38898438 11.14453125 63.07421875 C6.37488588 60.68505213 3.72330287 56.15670966 2.06347656 51.20751953 C-0.40226464 40.47843445 -0.34331523 30.07910434 -0.1875 19.125 C-0.17241345 17.26172967 -0.15873213 15.39844741 -0.14648438 13.53515625 C-0.11382199 9.02313651 -0.06226344 4.51170435 0 0 Z " fill="#888B8E" transform="translate(17,426)"/>
<path d="M0 0 C0.33 0 0.66 0 1 0 C1 5.61 1 11.22 1 17 C-4.61 17 -10.22 17 -16 17 C-13 14 -13 14 -10.125 12.125 C-5.23098951 8.79707287 -1.80250813 5.73525315 0 0 Z " fill="#F6F6F6" transform="translate(492,478)"/>
<path d="M0 0 C16.5 0 33 0 50 0 C50 0.66 50 1.32 50 2 C44.16522825 2.16848706 38.33030961 2.32894869 32.49511719 2.48217773 C30.51263585 2.5353434 28.53021068 2.59065052 26.54785156 2.64819336 C23.68827421 2.73081934 20.82857925 2.80558411 17.96875 2.87890625 C17.09134155 2.90594131 16.21393311 2.93297638 15.30993652 2.96083069 C10.08673249 3.08575163 5.16853892 2.77685023 0 2 C0 1.34 0 0.68 0 0 Z " fill="#69B9EA" transform="translate(209,19)"/>
<path d="M0 0 C7.61988961 -0.86262901 12.88705846 1.44983024 19 6 C28 15.24710983 28 15.24710983 28 19 C28.66 19 29.32 19 30 19 C30 21.64 30 24.28 30 27 C28.38113139 24.57169709 26.99950457 22.19015821 25.625 19.625 C20.59663299 10.62916422 14.43105027 5.13015271 4.4375 2.125 C2.96239389 1.73433263 1.48449825 1.35330438 0 1 C0 0.67 0 0.34 0 0 Z " fill="#C6CBCE" transform="translate(463,19)"/>
<path d="M0 0 C12.54 0 25.08 0 38 0 C38 0.66 38 1.32 38 2 C33.08656028 2.82213611 28.51017173 3.06469521 23.53515625 2.87890625 C22.85698349 2.85529526 22.17881073 2.83168427 21.48008728 2.80735779 C19.34063309 2.73155017 17.2016196 2.647177 15.0625 2.5625 C13.60093212 2.50919595 12.13934355 2.45645633 10.67773438 2.40429688 C7.11822702 2.27604979 3.55906183 2.14012555 0 2 C0 1.34 0 0.68 0 0 Z " fill="#69B8EA" transform="translate(262,19)"/>
<path d="M0 0 C2.92869654 2.82410024 5.58427923 5.72152181 8 9 C8 9.66 8 10.32 8 11 C8.928125 11.268125 9.85625 11.53625 10.8125 11.8125 C13.85688595 12.946683 14.89711622 13.69684158 17 16 C17.99 16.33 18.98 16.66 20 17 C20 17.66 20 18.32 20 19 C14.56599789 18.64941922 14.56599789 18.64941922 12 18 C10.75 16.0625 10.75 16.0625 10 14 C9.3915625 13.70738281 8.783125 13.41476562 8.15625 13.11328125 C5.61327171 11.8003305 4.4552998 10.4073457 2.75 8.125 C2.22921875 7.44695312 1.7084375 6.76890625 1.171875 6.0703125 C0 4 0 4 0 0 Z " fill="#A8A8A8" transform="translate(20,476)"/>
<path d="M0 0 C0.33 0 0.66 0 1 0 C1.38315917 7.18068664 1.25679138 12.10994364 -3.546875 17.84765625 C-7.03916362 21.61036545 -9.84717706 23.86889253 -15 25 C-13.43032806 23.35184447 -11.94061852 21.95925737 -10.05859375 20.66796875 C-7.7818383 18.82323521 -6.7007999 17.19138404 -5.3125 14.625 C-4.89613281 13.87476563 -4.47976563 13.12453125 -4.05078125 12.3515625 C-2.95172462 9.89196365 -2.46746244 7.64462545 -2 5 C-1.36562656 3.3207762 -0.70710678 1.64991582 0 0 Z " fill="#7C7D7F" transform="translate(492,468)"/>
<path d="M0 0 C4.28904235 1.5885342 6.32345526 4.43127368 9 8 C9 8.66 9 9.32 9 10 C9.66 10 10.32 10 11 10 C11 12.64 11 15.28 11 18 C9.39459852 15.59189779 8.00115616 13.22506183 6.625 10.6875 C4.58547818 6.98367996 2.40587474 3.4751524 0 0 Z " fill="#A0A4A6" transform="translate(482,28)"/>
<path d="M0 0 C0.99 0.33 1.98 0.66 3 1 C-2.98143676 5.98877279 -7.22568369 8.84452538 -15.1640625 8.24609375 C-15.76992188 8.16488281 -16.37578125 8.08367187 -17 8 C-17 7.67 -17 7.34 -17 7 C-16.35933594 6.82984375 -15.71867187 6.6596875 -15.05859375 6.484375 C-10.7640936 5.28114694 -6.87339157 4.10522912 -3.0625 1.75 C-2.051875 1.1725 -1.04125 0.595 0 0 Z " fill="#3F464A" transform="translate(479,487)"/>
<path d="M0 0 C4.39492254 4.23796102 7.99474622 8.15134313 10 14 C6.66865759 12.59504255 4.90666854 11.01145032 2.75 8.125 C2.22921875 7.44695312 1.7084375 6.76890625 1.171875 6.0703125 C0 4 0 4 0 0 Z " fill="#BABABA" transform="translate(20,476)"/>
<path d="M0 0 C0.33 0 0.66 0 1 0 C1.5 2.5625 1.5 2.5625 1 6 C-1.41995038 8.65876127 -4.13443598 10.83803429 -7 13 C-7.66 12.67 -8.32 12.34 -9 12 C-8.51789063 11.55269531 -8.03578125 11.10539062 -7.5390625 10.64453125 C-2.69203185 6.04405045 -2.69203185 6.04405045 0 0 Z " fill="#E1E1E1" transform="translate(492,478)"/>
<path d="M0 0 C4.62 1.65 9.24 3.3 14 5 C14 5.33 14 5.66 14 6 C11.36 6 8.72 6 6 6 C6 5.34 6 4.68 6 4 C4.35 3.67 2.7 3.34 1 3 C0.67 2.01 0.34 1.02 0 0 Z " fill="#525A5F" transform="translate(34,489)"/>
<path d="M0 0 C0.66 0.33 1.32 0.66 2 1 C1.2575 1.5775 0.515 2.155 -0.25 2.75 C-3.00552884 4.88507707 -3.00552884 4.88507707 -5.0625 7.3125 C-6.0215625 8.1478125 -6.0215625 8.1478125 -7 9 C-8.32 8.67 -9.64 8.34 -11 8 C-7.37 5.36 -3.74 2.72 0 0 Z " fill="#6E6E6E" transform="translate(483,486)"/>
<path d="M0 0 C2 0 2 0 3.625 1.5 C4.07875 1.995 4.5325 2.49 5 3 C4.34 4.65 3.68 6.3 3 8 C2.34 8 1.68 8 1 8 C0.67 5.36 0.34 2.72 0 0 Z " fill="#3686B9" transform="translate(252,342)"/>
<path d="M0 0 C1.32 0.33 2.64 0.66 4 1 C4 3.64 4 6.28 4 9 C2.00902154 6.01353231 1.05875074 3.40312738 0 0 Z " fill="#8A9298" transform="translate(489,37)"/>
</svg>
