<?xml version="1.0" encoding="UTF-8"?>
<!DOCTYPE svg PUBLIC "-//W3C//DTD SVG 1.1//EN" "http://www.w3.org/Graphics/SVG/1.1/DTD/svg11.dtd">
<svg xmlns="http://www.w3.org/2000/svg" version="1.1" width="225px" height="225px" style="shape-rendering:geometricPrecision; text-rendering:geometricPrecision; image-rendering:optimizeQuality; fill-rule:evenodd; clip-rule:evenodd" xmlns:xlink="http://www.w3.org/1999/xlink">
<g><path style="opacity:1" fill="#e92225" d="M 40.5,-0.5 C 88.1667,-0.5 135.833,-0.5 183.5,-0.5C 204.833,5.5 218.5,19.1667 224.5,40.5C 224.5,88.1667 224.5,135.833 224.5,183.5C 218.5,204.833 204.833,218.5 183.5,224.5C 136.167,224.5 88.8333,224.5 41.5,224.5C 19.1667,218.833 5.16667,204.833 -0.5,182.5C -0.5,135.5 -0.5,88.5 -0.5,41.5C 5.05377,19.6126 18.7204,5.61255 40.5,-0.5 Z M 62.5,141.5 C 64.3597,131.675 66.0264,121.675 67.5,111.5C 67.1667,110.5 66.8333,109.5 66.5,108.5C 63.7774,110.934 61.2774,113.601 59,116.5C 52.1257,126.412 45.6257,136.579 39.5,147C 34.3864,149.793 30.553,148.626 28,143.5C 28.8141,138.222 29.6474,132.889 30.5,127.5C 34.2233,113.443 37.89,99.2767 41.5,85C 40.7248,83.7705 39.7248,83.4372 38.5,84C 36.0628,87.5551 33.3961,90.8884 30.5,94C 28.0797,94.6869 25.913,94.1869 24,92.5C 24.089,80.4903 29.2557,71.3236 39.5,65C 48.3166,62.3872 52.6499,65.5539 52.5,74.5C 50.9399,85.5261 49.2733,96.5261 47.5,107.5C 48.8221,107.67 49.9887,107.337 51,106.5C 58.9369,95.1216 67.2702,83.4549 76,71.5C 79.2138,66.6611 83.3804,65.4945 88.5,68C 89.8941,68.956 90.5607,70.2894 90.5,72C 86.0644,86.4732 81.731,100.973 77.5,115.5C 77.8076,116.308 78.3076,116.975 79,117.5C 88,104.833 97,92.1667 106,79.5C 109.231,74.4656 113.731,72.6323 119.5,74C 121.662,75.6454 122.995,77.8121 123.5,80.5C 118.463,96.4424 115.463,112.609 114.5,129C 115.5,129.667 116.5,129.667 117.5,129C 131.248,110.342 143.081,90.509 153,69.5C 155.587,64.9324 159.421,63.4324 164.5,65C 166.01,66.3513 167.01,68.018 167.5,70C 159.638,85.9184 153.972,102.585 150.5,120C 151.328,128.414 155.328,130.414 162.5,126C 173.632,108.242 184.132,90.0754 194,71.5C 197.519,67.2465 201.519,66.5799 206,69.5C 206.667,71.5 206.667,73.5 206,75.5C 189.695,102.444 176.361,130.777 166,160.5C 161.134,173.418 160.301,186.584 163.5,200C 163.167,201.5 162.833,203 162.5,204.5C 154.749,207.374 149.583,204.707 147,196.5C 146.199,189.111 146.533,181.777 148,174.5C 150.705,164.385 154.205,154.552 158.5,145C 158.333,144.5 158.167,144 158,143.5C 152.201,146.576 146.867,145.91 142,141.5C 137.831,134.168 136.831,126.501 139,118.5C 131.782,127.384 124.948,136.551 118.5,146C 111.865,151.456 106.365,150.623 102,143.5C 101.783,131.77 102.616,120.103 104.5,108.5C 104.167,107.833 103.833,107.167 103.5,106.5C 94.0808,120.753 84.0808,134.586 73.5,148C 67.0006,150.271 63.334,148.104 62.5,141.5 Z"/></g>
<g><path style="opacity:1" fill="#db2025" d="M 62.5,141.5 C 62.8242,137.445 62.4909,133.445 61.5,129.5C 60.914,129.709 60.414,130.043 60,130.5C 58.3333,128.833 56.6667,127.167 55,125.5C 53.9568,127.701 53.1235,130.034 52.5,132.5C 51.914,132.291 51.414,131.957 51,131.5C 50.2547,133.203 49.4214,134.87 48.5,136.5C 48.9186,137.672 49.5853,138.672 50.5,139.5C 48.9928,140.739 47.8261,140.405 47,138.5C 46.6667,140.5 46.3333,142.5 46,144.5C 45.2588,145.641 44.4255,145.641 43.5,144.5C 42.2888,145.274 42.2888,146.107 43.5,147C 37.4291,151.734 31.4291,151.567 25.5,146.5C 24.914,146.709 24.414,147.043 24,147.5C 23.3551,146.354 22.5217,145.354 21.5,144.5C 22.698,144.06 23.8647,143.727 25,143.5C 25.3333,144.167 25.6667,144.833 26,145.5C 26.6626,142.131 26.4959,138.797 25.5,135.5C 25.6667,134.833 25.8333,134.167 26,133.5C 26.6667,134.833 27.3333,134.833 28,133.5C 28.0367,131.026 28.87,129.026 30.5,127.5C 29.6474,132.889 28.8141,138.222 28,143.5C 30.553,148.626 34.3864,149.793 39.5,147C 45.6257,136.579 52.1257,126.412 59,116.5C 61.2774,113.601 63.7774,110.934 66.5,108.5C 66.8333,109.5 67.1667,110.5 67.5,111.5C 66.0264,121.675 64.3597,131.675 62.5,141.5 Z"/></g>
</svg>
