<svg xmlns="http://www.w3.org/2000/svg" width="512" height="512"><path d="M255 338h2l10.254 17.7734 1.0124 1.6527c2.531 4.2044 4.5654 8.4514 6.4804 12.9715 5.3683 12.401 5.3683 12.401 15.1761 21.0695 7.7048 2.0494 15.544 1.6799 23.444 1.2723 3.4247-.1476 6.8494-.1418 10.2769-.1528 6.4817-.043 12.953-.2153 19.4308-.4383 8.772-.296 17.5459-.4096 26.3218-.5266 2.1223-.0284 4.2446-.0574 6.367-.0869l2.0885-.0287c4.7068-.0694 9.4099-.1904 14.115-.3316l3.8074-.0986a582.2094 582.2094 0 0 0 6.9666-.2238c14.7111-.352 28.873 4.4471 40.1966 13.9604 11.5851 11.1982 17.7686 25.8016 18.4375 41.8125-.3335 15.2613-5.6738 28.6586-16.1875 39.75-9.2485 8.7308-21.6662 15.7351-34.6437 15.7592l-3.3796.0135-3.713-.0005-3.9444.0111c-3.6163.01-7.2326.0137-10.849.0164-3.8992.004-7.7985.0135-11.6978.0222-9.4193.0198-18.8387.0298-28.258.0387-4.4375.0044-8.875.0098-13.3125.015-14.7549.017-29.5098.0315-44.2647.0388l-11.4861.0058-2.8836.0014c-15.4079.0083-30.8157.0337-46.2235.0661-15.825.0331-31.6498.0511-47.4747.0543-8.8826.0022-17.7651.011-26.6477.0365a5461.612 5461.612 0 0 1-22.6996.02c-3.8577-.0045-7.7151-.0027-11.5728.0168-4.191.021-8.3813.0106-12.5722-.0026l-3.6589.0333C89.3414 502.3959 76.4785 495.5927 65 484c-10.1402-10.8884-14.6161-24.9143-14.3125-39.6602 1.5268-16.3174 7.9104-30.6245 20.625-41.2773 12.544-9.3276 25.5853-12.5146 40.93-11.937 2.475.0723 4.95.1435 7.425.2136l3.9445.12c4.1003.1185 8.2007.1923 12.3022.2538l2.1079.0316c2.865.0419 5.73.082 8.595.1209 8.092.1108 16.177.2676 24.2645.5643 30.5623 2.8786 30.5623 2.8786 58.27-5.0618 6.185-5.9108 8.6651-13.522 10.726-21.6659 1.9435-6.4103 5.494-11.775 8.9974-17.452a909.1282 909.1282 0 0 0 3.4297-5.9844c1.437-2.5068 1.437-2.5068 2.6953-4.2656Zm-117 75c-2.1693 3.2539-2.2408 4.134-2.1953 7.8867l.0195 2.8418.0508 2.959.0273 2.9941c.0236 2.4397.0565 4.879.0977 7.3184l-1.573-.9338c-2.363-1.3914-4.7383-2.7601-7.1145-4.1287l-2.4746-1.4707-2.4121-1.377c-.728-.4241-1.4559-.8483-2.2058-1.2854-2.8203-1.022-4.391-.7147-7.22.1956-2.2091 1.8228-2.2091 1.8228-2.4063 4.4063.1602 2.7262.1602 2.7262 2.3126 4.4375L115.5 438.5l2.5313 1.6563L121 442c1.448.906 2.896 1.8123 4.3438 2.7188 1.2186.7606 2.4373 1.521 3.6562 2.2812-.4742.2925-.9484.585-1.437.8862a3779.3144 3779.3144 0 0 0-6.438 3.9888l-2.2617 1.3945-2.168 1.3477-1.9995 1.2378c-1.8453 1.1677-1.8453 1.1677-3.6958 3.145-.0758 3.0464-.0758 3.0464 1 6 2.2096 1.499 2.2096 1.499 5 2 2.7102-.9187 2.7102-.9187 5.3125-2.625 4.4758-2.679 9.0023-5.0888 13.6875-7.375l-.0476 1.8801c-.0624 2.8107-.1014 5.6213-.1399 8.4324l-.0762 2.959-.0293 2.8418-.0476 2.6184c.1704 2.3301.1704 2.3301 1.6675 4.0815 1.7482 1.4963 1.7482 1.4963 4.7356 1.0618 3.23-.6215 3.23-.6215 4.9375-3.875.2748-2.2249.2748-2.2249.1953-4.668l-.0195-2.705-.0508-2.8145-.0273-2.8496A916.9764 916.9764 0 0 0 147 457l1.573.9497c2.3607 1.4109 4.737 2.7931 7.1145 4.1753l2.4746 1.496c4.6267 2.8268 4.6267 2.8268 9.8379 2.8478 2.5217-1.852 3.1413-3.5025 4-6.4688-4.6242-5.45-10.6886-8.765-17-12h-2c2.0238-2.1675 3.9375-3.6721 6.539-5.086l2.0079-1.1327a356.9155 356.9155 0 0 1 4.1797-2.2891c4.0563-2.237 4.0563-2.237 6.332-6.1328.1458-2.5045.1458-2.5045-1.6211-4.7344-2.3237-1.9004-2.3237-1.9004-5.129-1.4805-4.0298 1.042-7.144 2.7787-10.6835 4.918l-1.9414 1.1426c-1.5661.9233-3.1256 1.858-4.6836 2.7949l-.0442-1.6807c-.0747-2.5238-.1713-5.0463-.2683-7.5693l-.0684-2.6445c-.2012-5.0362-.2012-5.0362-1.9707-9.6875-1.6805-1.703-1.6805-1.703-4.7109-1.8555L138 413Zm113 2c-.37 2.2266-.37 2.2266-.414 4.789l-.1173 2.8516-.0937 2.9844-.1172 3.0078c-.0944 2.4556-.18 4.911-.2578 7.3672-1.8971-.935-3.7926-1.873-5.6875-2.8125l-3.1992-1.582C238 430 238 430 235.2734 428.289c-2.2295-1.5409-2.2295-1.5409-4.9609-1.1016-2.4684.6799-2.4684.6799-4.3125 2.8125-.584 2.4142-.584 2.4142 0 5 4.3424 3.9375 9.3637 6.5714 14.4531 9.414C243 446 243 446 244 448l-2.0742.7656c-3.3934 1.4317-6.564 3.1301-9.7383 4.9844l-1.8105.9766c-1.9595 1.09-1.9595 1.09-4.377 3.2734-.6517 3.0962-.6517 3.0962 0 6 1.5 2.1667 1.5 2.1667 4 3 4.524-1.171 8.2099-3.1477 12.1875-5.5625 5.5208-3.3403 5.5208-3.3403 8.8125-4.4375l-.0476 1.8801c-.0624 2.8107-.1014 5.6213-.1399 8.4324l-.0762 2.959-.0293 2.8418-.0476 2.6184c.1712 2.3297.1712 2.3297 1.6636 4.0854 1.762 1.5041 1.762 1.5041 4.802.9954L260 480c1.2264-2.4528 1.1142-4.0506 1.0977-6.789l-.0098-2.8516-.0254-2.9844-.0137-3.0078A2068.311 2068.311 0 0 0 261 457c1.8555.914 3.7093 1.8314 5.5625 2.75l3.3203 1.6406c2.4602 1.2702 4.7381 2.6062 7.0547 4.1094 2.9522 1.8489 2.9522 1.8489 5.9375.8125 2.0312-1.142 2.0312-1.142 3.125-2.3125.1762-3.3783.1762-3.3783-1-7-2.2094-2.1444-4.7307-3.5004-7.4375-4.9375l-2.1035-1.205c-3.5137-2.1299-3.5137-2.1299-7.459-2.8575 3.0454-3.3396 6.1873-5.4288 10.125-7.625 4.2186-2.3169 4.2186-2.3169 7.875-5.375.3633-2.8339.3569-4.4052-1.125-6.875-1.8824-1.368-1.8824-1.368-4.4688-.9805-4.4098 1.1075-7.888 3.1194-11.7812 5.418l-2.2305 1.2871c-1.8029 1.042-3.5994 2.095-5.3945 3.1504l.0317-1.9878c.0415-2.9624.0676-5.9247.0933-8.8872l.0508-3.129.0195-2.9882.0318-2.7612c-.0084-2.4495-.0084-2.4495-2.2271-4.2466-4.5048-.5105-4.5048-.5105-8 2Zm115.3269-.2705c-1.526 2.6112-1.6775 4.0374-1.6199 7.0361l.0293 2.6953.0762 2.7891.041 2.836c.0353 2.3052.0846 4.6093.1465 6.914l-1.4653-.9338c-2.2092-1.394-4.4339-2.7614-6.6597-4.1287l-2.3047-1.4707c-3.5824-2.1772-5.7374-3.4677-10-3.4629-2.8758.831-2.8758.831-4.5703 3.9961-.3464 2.4806-.3464 2.4806 1 5 2.6446 2.071 5.5426 3.6085 8.5 5.1875a930.2171 930.2171 0 0 1 4.7188 2.6055l2.123 1.1413C358 446 358 446 359 448l-2.1133.793c-3.1577 1.3203-6.0882 2.8466-9.0742 4.5195l-3.168 1.7383c-2.9078 2.1433-3.6831 3.5224-4.6445 6.9492l5 5c4.9144-1.4365 9.0024-3.5416 13.375-6.125.6407-.3725 1.2813-.745 1.9414-1.129 1.564-.9103 3.1243-1.8275 4.6836-2.746l-.0635 1.7725c-.0833 2.659-.1352 5.3177-.1865 7.9775l-.1016 2.789c-.1466 5.3966-.1466 5.3966 2.2032 10.1094 2.0966 1.605 2.0966 1.605 4.7734 1.2266 2.519-.7397 2.519-.7397 4.375-2.875.2774-2.2304.2774-2.2304.1953-4.789l-.0195-2.8516-.0508-2.9844-.0273-3.0078c-.0237-2.456-.0566-4.9115-.0977-7.3672l2.125 1.1719a962.6558 962.6558 0 0 0 5.914 3.2187c1.7784.9666 3.5476 1.9507 5.297 2.9688 3.087 1.7268 5.0368 2.7207 8.6015 2.2656 2.375-1.5345 2.375-1.5345 2.875-4.75L401 459c-5.7257-4.5102-11.6916-8.3546-18-12l3.9375-2.625 2.461-1.6602a142.8848 142.8848 0 0 1 5.203-3.2734l2.461-1.5039 2.2852-1.3477c1.9161-1.5093 1.9161-1.5093 1.9687-4.1562-.153-2.4443-.153-2.4443-1.4414-4.3086-1.8824-1.368-1.8824-1.368-4.4688-.9805-4.4098 1.1075-7.888 3.1194-11.7812 5.418l-2.2305 1.2871c-1.8029 1.042-3.5994 2.095-5.3945 3.1504l.0317-1.8801c.0416-2.8108.0676-5.6215.0933-8.4324l.0508-2.959.0195-2.8418.0318-2.6184c-.0762-2.5501-.0762-2.5501-2.2271-5.2683-4.3033-.6682-4.3033-.6682-7.6731 1.7295ZM178.6016 124.6118c1.8768-.004 3.7537-.0094 5.6305-.016 5.0744-.0135 10.1485-.0083 15.223.0012 5.323.0076 10.6461.0006 15.9692-.0041 8.9374-.0055 17.8747.0017 26.812.016 10.3168.0163 20.6334.011 30.9501-.0055 8.875-.0136 17.75-.0155 26.625-.0077 5.2932.0047 10.5862.0054 15.8793-.0046 4.9775-.0087 9.9547-.0026 14.932.0147a939.209 939.209 0 0 0 5.4637-.0038c13.3373-.0441 24.0285.4745 34.4761 9.648 8.3726 9.446 9.7375 17.9802 9.728 30.3037l.0204 3.7919c.0157 3.4176.0223 6.835.0236 10.2527.0014 2.1404.0057 4.2808.011 6.4212.0185 7.4821.0267 14.9642.0251 22.4463-.0012 6.95.0199 13.8997.0515 20.8496.0262 5.9867.0369 11.9733.0356 17.96-.0005 3.5668.005 7.1333.0264 10.7.0231 3.9847.0138 7.9686.0017 11.9533l.0341 3.5305c-.0831 10.8882-2.6887 19.6598-10.2972 27.5955-7.1713 6.2764-13.8146 8.0948-23.1533 8.0925l-2.439.0111c-2.7006.011-5.401.0149-8.1016.0187-1.935.0063-3.8702.013-5.8052.02-6.3584.021-12.7168.0313-19.0752.0413l-6.5706.0123c-10.291.019-20.5821.0333-30.8732.0416-11.8721.0098-23.744.0361-35.616.0765a9409.872 9409.872 0 0 1-27.5419.0483c-5.481.0024-10.9619.0113-16.4429.0365-5.1595.0233-10.3188.0275-15.4784.0172-1.889-.0005-3.778.0058-5.6668.0196-12.7252.0874-22.9912-.3847-32.7047-9.5684-8.168-8.9502-9.0534-17.8788-9.0444-29.5833l-.0204-3.8263c-.0176-3.4485-.0223-6.8969-.0236-10.3455a3619.2396 3619.2396 0 0 0-.011-6.4774 8517.544 8517.544 0 0 1-.0251-22.6374c.0012-7.0125-.0199-14.0247-.0515-21.0371a3977.2944 3977.2944 0 0 1-.0356-18.1154c.0005-3.5986-.005-7.197-.0264-10.7955-.023-4.0184-.0138-8.036-.0017-12.0544l-.0341-3.5697c.0746-9.8353 2.5313-19.206 9.5199-26.4799 11.239-9.455 23.6027-9.4393 37.6016-9.3882Zm42 45.0718C212.5768 181.2902 210.8684 192.2112 212 206c2.2196 10.7556 8.7904 19.8906 17 27l2 1 .0283 2.4275c.054 3.6706.1377 7.34.2217 11.01l.043 3.8184c.223 8.542 1.0696 15.3192 6.6015 22.0488 6.3883 5.2303 12.0385 8.4098 20.4883 8.1015 7.75-1.203 13.2581-5.4113 18.2422-11.246 2.985-4.6895 3.6051-9.1504 3.5078-14.625l.0078-3.6739a408.4435 408.4435 0 0 0-.1015-7.586c.0773-9.096.0773-9.096 2.6855-12.577 2.127-1.835 2.127-1.835 4.2388-3.283C294.0378 223.499 298.1776 214.1986 300 206c1.0222-14.4711-.4296-26.591-10.1914-38.0742-7.9714-8.488-17.7697-14.2079-29.5703-15.2617-15.994-.1592-29.1356 4.3037-39.6367 17.0195ZM302.9492 24.0156c2.4503 1.9062 4.761 3.8892 7.0508 5.9844l2.0664 1.789C326.6632 45.2148 334.6987 65.4888 336 85c.1134 5.022.0944 10.0396.0625 15.0625L336 114h-39c-.375-12.3125-.375-12.3125-.478-16.1223-.4814-13.9012-2.4077-26.6003-12.147-37.2527-9.5829-8.8614-20.396-11.2222-32.9727-10.957-9.8363.5132-17.2443 5.1469-24.207 11.8633-10.4798 11.785-11.2755 24.3477-11.7578 39.4062L215 114h-39l-.125-13.625-.0552-4.2017C175.7178 72.8458 181.4682 52.7252 197 35l1.7969-2.086c26.6678-28.8331 72.7843-30.3366 104.1523-8.8984Z"/><path d="M271.8242 166.6758C280.533 171.976 286.2887 179.1419 289 189c1.0691 11.8847.0413 21.4656-7.8125 30.875-2.5269 2.8239-4.2904 4.1726-7.7832 5.788-1.8887.994-1.8887.994-3.4043 2.337-.6886 2.8347-.8726 4.5754-.7617 7.3984l-.0085 2.1594c-.0053 2.274.0352 4.5438.0827 6.8172.0316 2.2656.0528 4.53.0506 6.7958.0001 1.407.02 2.8143.063 4.2206.0222 5.0053-1.323 7.7433-4.4261 11.6086-3.4622 2.8852-6.488 3.5392-11.0078 3.3516-4.296-.7581-7.0714-3.1414-9.648-6.5276-1.7308-3.6362-1.6343-6.3026-1.5395-10.32.007-1.4604.0121-2.9207.0156-4.381.0206-2.2832.0548-4.5635.1211-6.8459.5662-8.8468.5662-8.8468-2.8865-16.5344-2.2928-1.5028-4.5731-2.593-7.0549-3.7427-6.3168-5.5985-9.5517-12.4937-10.3828-20.8477-.4477-10.2215 1.0813-18.3842 7.6328-26.4648 10.525-11.156 27.5184-14.7444 41.5742-8.0117Z"/></svg>