<?xml version="1.0" encoding="UTF-8"?>
<!-- Generator: Adobe Illustrator 24.3.0, SVG Export Plug-In . SVG Version: 6.00 Build 0)  -->
<svg xmlns="http://www.w3.org/2000/svg" xmlns:xlink="http://www.w3.org/1999/xlink" version="1.1" id="Layer_1" x="0px" y="0px" viewBox="0 0 1011 104.2" style="enable-background:new 0 0 1011 104.2;" xml:space="preserve">
<style type="text/css">
	.st0{fill:#D22439;}
</style>
<g>
	<g>
		<g>
			<path class="st0" d="M0,104.2l3.9-15.4h28.6c4.5,0,8-0.6,10.3-1.7C45,86,46.5,84.3,47,82L67.8,0h19.7L66.7,82     c-0.8,3.3-2.2,6.2-4.1,9c-1.9,2.7-4.4,5.1-7.5,7c-3.1,2-6.9,3.5-11.3,4.6c-4.4,1.1-9.5,1.6-15.2,1.6H0z"></path>
			<g>
				<path class="st0" d="M807.9,15.4h68.8c8.7,0,12.2,3.2,10.6,9.6l-1.9,7.7c-0.1,0.6-0.3,1.1-0.5,1.7h19.7c0.2-0.6,0.4-1.2,0.5-1.8      l1.9-7.4c0.9-3.7,1.2-7.2,0.8-10.2c-0.4-3.1-1.6-5.7-3.7-7.9c-2.1-2.2-5-3.9-8.8-5.2c-3.8-1.2-8.7-1.8-14.6-1.8h-88.5l-8.7,34.4      h19.7L807.9,15.4z"></path>
				<polygon class="st0" points="765.8,104.2 785.5,104.2 795.8,63.4 776.1,63.4     "></polygon>
				<polygon class="st0" points="864.8,104.2 885.8,104.2 874.7,63.4 853.7,63.4     "></polygon>
			</g>
			<path class="st0" d="M944.6,32.1c0,0-25.9,9.4-26.2,9.4c-8.3,0-259.8,0-259.8,0l-3.5,15.4l264,0l25.5,10.3l66.4-17.5L944.6,32.1z     "></path>
			<g>
				<polygon class="st0" points="771.5,15.4 775.4,0 668.3,0 664.4,15.4 684.1,15.4     "></polygon>
				<polygon class="st0" points="641.9,104.2 749.1,104.2 753,88.8 665.5,88.8 645.8,88.8     "></polygon>
			</g>
			<g>
				<polygon class="st0" points="161.2,20.3 169.4,41.4 190.3,41.4 173.4,0 159.1,0 121,41.4 142.1,41.4     "></polygon>
				<polygon class="st0" points="175.7,57.7 193.7,104.2 215.9,104.2 196.9,57.7     "></polygon>
				<polygon class="st0" points="63.5,104.2 85.4,104.2 127.4,57.7 106.2,57.7     "></polygon>
				<polygon class="st0" points="610.1,104.2 632.3,104.2 613.4,57.7 592.1,57.7     "></polygon>
				<polygon class="st0" points="479.9,104.2 501.8,104.2 543.9,57.7 522.6,57.7     "></polygon>
				<polygon class="st0" points="577.6,20.3 585.8,41.4 606.8,41.4 589.9,0 575.5,0 537.5,41.4 558.5,41.4     "></polygon>
			</g>
			<g>
				<path class="st0" d="M258.8,22.5c1.2-4.7,7.6-7.1,19.3-7.1h81.5L363.4,0h-81.5c-24.8,0-39,7.5-42.8,22.5l-15,59.2      c-3.8,15,6.7,22.5,31.5,22.5h46c24.8,0,39-7.4,42.8-22.2l6.2-24.3h0l4.3-16.2c-47,0-49.3,0-49.3,0l-3.8,16.2l29.2,0L324.7,82      c-1.1,4.5-7.5,6.8-19.2,6.8h-46c-11.6,0-16.9-2.4-15.7-7.1L258.8,22.5z"></path>
				<path class="st0" d="M396.5,22.5c1.2-4.7,7.6-7.1,19.3-7.1h81.5L501.2,0h-81.5c-24.8,0-39,7.5-42.8,22.5l-15,59.2      c-3.8,15,6.7,22.5,31.5,22.5h46c24.8,0,39-7.4,42.8-22.2l6.2-24.3h0l4.3-16.2c-47,0-49.3,0-49.3,0l-3.8,16.2l29.1,0L462.4,82      c-1.1,4.5-7.5,6.8-19.2,6.8h-46c-11.6,0-16.9-2.4-15.7-7.1L396.5,22.5z"></path>
			</g>
			<path class="st0" d="M238.2,25.9"></path>
		</g>
	</g>
</g>
</svg>
