<svg xmlns="http://www.w3.org/2000/svg" width="680" height="367" style="shape-rendering:geometricPrecision;text-rendering:geometricPrecision;image-rendering:optimizeQuality;fill-rule:evenodd;clip-rule:evenodd"><path style="opacity:.937" fill="#e6de65" d="M122.5-.5h7a115.303 115.303 0 0 0 9 3 50.438 50.438 0 0 1-10-.5c-2.474-.037-4.474-.87-6-2.5Z"/><path style="opacity:1" fill="#e7df04" d="M94.5-.5h28c1.526 1.63 3.526 2.463 6 2.5 3.317.498 6.65.665 10 .5 4.552 4.768 10.218 7.102 17 7 4.729 3.701 10.062 5.701 16 6l4 2c1.616 3.797 4.616 5.797 9 6a444.397 444.397 0 0 0-3 42c-.667 1.333-1.333 1.333-2 0-10.379-3.345-21.046-3.845-32-1.5-1.692 1.307-3.025 2.807-4 4.5-.342.838-1.008 1.172-2 1a28.318 28.318 0 0 0-10 3c-.929 1.189-1.262 2.522-1 4-1.322-.17-2.489.163-3.5 1a21.53 21.53 0 0 0-5-6l-1 1c-1.049-1.607-2.549-2.273-4.5-2 .322-2.222-.345-4.056-2-5.5a57.893 57.893 0 0 1-8-3.5 136.606 136.606 0 0 1-8-10.5c1.363-2.13 1.03-2.63-1-1.5-1.196-.346-1.196-.846 0-1.5-3.614.034-5.947-1.633-7-5 1.122-1.613.622-2.78-1.5-3.5a3.943 3.943 0 0 1-2 1c-1.495-1.663-3.328-2.663-5.5-3-1.667-1-3-2.333-4-4-1.752-7.096-6.086-12.096-13-15a60.508 60.508 0 0 1 4-8c6.855-3.609 13.855-6.609 21-9a26.327 26.327 0 0 0 5-2Z"/><path style="opacity:.973" fill="#e4de50" d="M138.5 2.5c11.766 2.585 22.766 6.918 33 13-5.938-.299-11.271-2.299-16-6-6.782.102-12.448-2.232-17-7Z"/><path style="opacity:1" fill="#e4dd3c" d="M89.5 1.5c-7.145 2.391-14.145 5.391-21 9a60.508 60.508 0 0 0-4 8c6.914 2.904 11.248 7.904 13 15a255.447 255.447 0 0 1-19-19c9.286-6.809 19.619-11.142 31-13Z"/><path style="opacity:1" fill="#e5df5d" d="M175.5 17.5a1304.39 1304.39 0 0 0 9 6c-4.384-.203-7.384-2.203-9-6Z"/><path style="opacity:1" fill="#feab01" d="M44.5 33.5c.656 1.984 1.322 3.984 2 6a10.313 10.313 0 0 1-1 3l1 1c1.673-1.586 3.673-2.253 6-2 1.667 1 3 2.333 4 4 .117 3.857 1.95 6.524 5.5 8l3 5c.414-.457.914-.79 1.5-1a14.73 14.73 0 0 1 1.5 5c1.05-1.017 2.216-1.184 3.5-.5 4.695 4.2 8.695 9.034 12 14.5a32.27 32.27 0 0 0 7 3h1c.025 2.679 1.358 4.012 4 4a9.173 9.173 0 0 0 2 4.5c-.95.718-1.117 1.55-.5 2.5 2.04.923 4.208 1.256 6.5 1a425.6 425.6 0 0 0 4 8c2.017.719 3.683 1.886 5 3.5a37.627 37.627 0 0 0-3 14.5c-1.457 1.742-2.624 3.742-3.5 6a128.507 128.507 0 0 0-.5 16v2c-.994 9.486-1.327 19.152-1 29a577.768 577.768 0 0 0-57 3h-1a796.226 796.226 0 0 0-45 1c.166-5.344 0-10.677-.5-16-.21-1.558-.71-2.891-1.5-4v-22c1.67-7.104 2.838-14.437 3.5-22a33.286 33.286 0 0 1 3.5-8.5c-.556-.383-.89-.883-1-1.5a855.911 855.911 0 0 0 5.5-18l3-1c-.43-5.3 1.237-9.633 5-13 1.815-2.725 2.315-5.558 1.5-8.5a125.33 125.33 0 0 1 3-8.5c2.296-1.9 4.129-4.234 5.5-7 4.532-2.82 7.365-6.82 8.5-12 2.373-3.399 4.706-3.066 7 1Z"/><path style="opacity:1" fill="#f4b53f" d="M44.5 33.5c3 2.333 5.667 5 8 8-2.327-.253-4.327.414-6 2l-1-1c.487-.946.82-1.946 1-3-.678-2.016-1.344-4.016-2-6Z"/><path style="opacity:1" fill="#efb63f" d="M37.5 32.5c-1.135 5.18-3.968 9.18-8.5 12-1.371 2.766-3.204 5.1-5.5 7a61.922 61.922 0 0 1 14-19Z"/><path style="opacity:.741" fill="#e4dc5a" d="M184.5 23.5c1.15 4.816 1.316 9.816.5 15a307.795 307.795 0 0 1-3.5 27 444.397 444.397 0 0 1 3-42Z"/><path style="opacity:1" fill="#e5de4e" d="M81.5 37.5c2.172.337 4.005 1.337 5.5 3a3.943 3.943 0 0 0 2-1c2.122.72 2.622 1.887 1.5 3.5 1.053 3.367 3.386 5.034 7 5-1.196.654-1.196 1.154 0 1.5 2.03-1.13 2.363-.63 1 1.5a136.606 136.606 0 0 0 8 10.5c-8.887-7.216-17.22-15.216-25-24Z"/><path style="opacity:.996" fill="#cccccb" d="M209.5 45.5c3.231 1.72 6.064 4.053 8.5 7a275.333 275.333 0 0 1 36.5 53.5l-1 1a121.19 121.19 0 0 1-22 0c-6.417-9.753-14.251-18.253-23.5-25.5a10.256 10.256 0 0 1-1.5-4l3-32Z"/><path style="opacity:1" fill="#e5df59" d="M179.5 65.5a755.434 755.434 0 0 1-14.5-2 91.746 91.746 0 0 0-21.5 5c.975-1.693 2.308-3.193 4-4.5 10.954-2.345 21.621-1.845 32 1.5Z"/><path style="opacity:1" fill="#f3b12d" d="M23.5 51.5a125.33 125.33 0 0 0-3 8.5c.815 2.942.315 5.775-1.5 8.5-3.763 3.367-5.43 7.7-5 13l-3 1a855.911 855.911 0 0 1-5.5 18c.248-4.406.915-8.74 2-13 2.842-13.223 8.175-25.223 16-36Z"/><path style="opacity:1" fill="#e3dd37" d="M106.5 61.5a57.893 57.893 0 0 0 8 3.5c1.655 1.444 2.322 3.278 2 5.5 1.951-.273 3.451.393 4.5 2l1-1a21.53 21.53 0 0 1 5 6c1.011-.837 2.178-1.17 3.5-1-.262-1.478.071-2.811 1-4a28.318 28.318 0 0 1 10-3 238.452 238.452 0 0 0-14.5 12 193.586 193.586 0 0 1-20.5-20Z"/><path style="opacity:1" fill="#f0b332" d="M56.5 45.5a817.547 817.547 0 0 1 34 34 32.27 32.27 0 0 1-7-3c-3.305-5.466-7.305-10.3-12-14.5-1.284-.684-2.45-.517-3.5.5a14.73 14.73 0 0 0-1.5-5 3.646 3.646 0 0 0-1.5 1l-3-5c-3.55-1.476-5.383-4.143-5.5-8Z"/><path style="opacity:.906" fill="#efc56d" d="M91.5 79.5c1.667 1 3 2.333 4 4-2.642.012-3.975-1.321-4-4Z"/><path style="opacity:1" fill="#f4b440" d="M95.5 83.5c3 2.333 5.667 5 8 8-2.292.256-4.46-.077-6.5-1-.617-.95-.45-1.782.5-2.5a9.173 9.173 0 0 1-2-4.5Z"/><path style="opacity:.906" fill="#edba48" d="M103.5 91.5a85.713 85.713 0 0 1 11 11 197.453 197.453 0 0 0-5 15 37.627 37.627 0 0 1 3-14.5c-1.317-1.614-2.983-2.781-5-3.5a425.6 425.6 0 0 1-4-8Z"/><path style="opacity:.671" fill="#ebbe51" d="M7.5 87.5a68.023 68.023 0 0 0-2 13c.11.617.444 1.117 1 1.5a33.286 33.286 0 0 0-3.5 8.5c-.662 7.563-1.83 14.896-3.5 22v-10a352.676 352.676 0 0 1 5.5-29c.566-2.223 1.4-4.223 2.5-6Z"/><path style="opacity:.993" fill="#151515" d="M242.5 138.5a315.058 315.058 0 0 1 1 32c-1.186 6.029-4.52 10.529-10 13.5-23.318 5.827-34.652-3.34-34-27.5-2.104-13.246 2.563-23.079 14-29.5a72.464 72.464 0 0 1 17 0c5.848 2.016 9.848 5.85 12 11.5Zm-13 2c.489 1.495 1.155 2.829 2 4 .166 8.007 0 16.007-.5 24-4.699 8.421-10.366 9.088-17 2-2.243-10.122-1.91-20.122 1-30 4.902-3.973 9.736-3.973 14.5 0Z"/><path style="opacity:.991" fill="#171817" d="M553.5 139.5a20.69 20.69 0 0 1-5-1 37.297 37.297 0 0 0-14-.5c-3.436 3.06-3.769 6.393-1 10a52.475 52.475 0 0 0 15 3c8.181 2.684 12.514 8.351 13 17-1.03 9.703-6.363 15.703-16 18-8.308 1.248-16.308.248-24-3-2-1.333-3.667-3-5-5a63.707 63.707 0 0 1 7-6.5l4 1c6.274 3.494 12.607 3.66 19 .5 2.843-3.619 2.51-6.952-1-10a112.884 112.884 0 0 1-16-3c-7.197-2.531-10.864-7.698-11-15.5 1.666-12.497 8.833-18.83 21.5-19 7.694-.396 14.194 2.104 19.5 7.5-1.514 2.678-3.514 4.845-6 6.5Z"/><path style="opacity:.993" fill="#181818" d="M157.5 126.5h12v48c8.918-.317 17.751.016 26.5 1 .789 3.591.622 7.091-.5 10.5a250.1 250.1 0 0 1-38.5-.5c-.82-19.74-.653-39.407.5-59Z"/><path style="opacity:.997" fill="#151515" d="M294.5 133.5c-.073 1.527.594 2.527 2 3 3.791 8.724 2.124 16.224-5 22.5a4.934 4.934 0 0 1-3 .5 588.066 588.066 0 0 0 11 25c-4.134.985-8.468 1.318-13 1a179.001 179.001 0 0 1-10-20c.215-1.679-.452-2.679-2-3h-7v24c-4.267.297-8.434-.036-12.5-1-.5-19.664-.667-39.331-.5-59 10.339-.166 20.672 0 31 .5 3.776 1.209 6.776 3.376 9 6.5Zm-27 4a84.902 84.902 0 0 1 13 .5c5.126 2.553 6.293 6.386 3.5 11.5a9.454 9.454 0 0 1-2.5 1.5 98.432 98.432 0 0 1-14 .5v-14Z"/><path style="opacity:.998" fill="#151515" d="M309.5 126.5h40v11h-28v13h23v11a78.037 78.037 0 0 1-23 0v13c9.006-.166 18.006 0 27 .5 1.122 3.409 1.289 6.909.5 10.5a395.817 395.817 0 0 1-39.5 1 462.38 462.38 0 0 1 0-60Z"/><path style="opacity:.995" fill="#131313" d="M401.5 185.5a256.827 256.827 0 0 0-1-32c-.798.457-1.131 1.124-1 2a70.909 70.909 0 0 1-10 18.5 12.494 12.494 0 0 1-7 0c-2.709-3.521-4.709-7.354-6-11.5.073-1.527-.594-2.527-2-3a51.22 51.22 0 0 0-2.5-4 481.165 481.165 0 0 0-.5 31c-4.267.297-8.434-.036-12.5-1-.5-19.664-.667-39.331-.5-59a43.117 43.117 0 0 1 13 1 294.126 294.126 0 0 1 14.5 29 581.047 581.047 0 0 0 14-29c4.401-.967 8.901-1.3 13.5-1 .167 19.669 0 39.336-.5 59-3.934 1.321-7.767 1.321-11.5 0Z"/><path style="opacity:.996" fill="#141414" d="M444.5 126.5h13v60c-4.267.297-8.434-.036-12.5-1-.5-19.664-.667-39.331-.5-59Z"/><path style="opacity:.997" fill="#131313" d="M470.5 126.5c10.006-.166 20.006 0 30 .5 11.611 5.393 15.444 14.226 11.5 26.5-3.275 6.273-8.442 9.773-15.5 10.5a98.432 98.432 0 0 1-14 .5v22h-12a473.289 473.289 0 0 1 0-60Zm28 13c.432 1.21 1.099 2.21 2 3 .625 3.47-.375 6.304-3 8.5-4.872 1.388-9.872 1.888-15 1.5v-15a98.432 98.432 0 0 1 14 .5c.544.717 1.211 1.217 2 1.5Z"/><path style="opacity:.991" fill="#141414" d="M569.5 126.5h13c-.167 14.337 0 28.671.5 43 4.084 5.916 9.251 7.083 15.5 3.5a29.517 29.517 0 0 0 2.5-4.5c.5-13.996.667-27.996.5-42h13a400.45 400.45 0 0 1-1.5 47c-8.467 13.571-19.967 16.738-34.5 9.5-3.262-2.592-5.762-5.759-7.5-9.5a393.104 393.104 0 0 1-1.5-47Z"/><path style="opacity:.994" fill="#100f0f" d="M657.5 147.5c1.406-.473 2.073-1.473 2-3a85.066 85.066 0 0 1 8-17.5 72.367 72.367 0 0 1 12-.5v60h-12c.166-10.339 0-20.672-.5-31a232.09 232.09 0 0 1-9.5 18c-3.037 1.241-6.037 1.241-9 0 .97-2.474-.03-4.141-3-5v-1c.215-1.679-.452-2.679-2-3a5.727 5.727 0 0 0-1-3c.215-1.679-.452-2.679-2-3a5.727 5.727 0 0 0-1-3c.131-.876-.202-1.543-1-2a256.827 256.827 0 0 0-1 32c-3.733 1.321-7.566 1.321-11.5 0-.5-19.664-.667-39.331-.5-59a43.117 43.117 0 0 1 13 1l14.5 29 4.5-9Z"/><path style="opacity:.671" fill="#eec257" d="M109.5 117.5a804.902 804.902 0 0 1-4 22c-.166-5.344.001-10.677.5-16 .876-2.258 2.043-4.258 3.5-6Z"/><path style="opacity:.208" fill="#969592" d="M294.5 133.5c1.406.473 2.073 1.473 2 3-1.406-.473-2.073-1.473-2-3Z"/><path style="opacity:.722" fill="#858584" d="M498.5 139.5c1.548.321 2.215 1.321 2 3-.901-.79-1.568-1.79-2-3Z"/><path style="opacity:.475" fill="#7b7b76" d="M548.5 138.5a20.69 20.69 0 0 0 5 1c-1.955 1.43-3.621 1.097-5-1Z"/><path style="opacity:.729" fill="#777674" d="M229.5 140.5c1.676.683 2.343 2.017 2 4-.845-1.171-1.511-2.505-2-4Z"/><path style="opacity:.149" fill="#afb0ad" d="M659.5 144.5c.073 1.527-.594 2.527-2 3-.073-1.527.594-2.527 2-3Z"/><path style="opacity:.453" fill="#5c5c5b" d="M242.5 138.5c.79 1.109 1.29 2.442 1.5 4 .824 9.509.658 18.843-.5 28a315.058 315.058 0 0 0-1-32Z"/><path style="opacity:.255" fill="#747274" d="m401.5 185.5-2-30c-.131-.876.202-1.543 1-2a256.827 256.827 0 0 1 1 32Z"/><path style="opacity:.729" fill="#74736e" d="M640.5 158.5c1.548.321 2.215 1.321 2 3-.901-.79-1.568-1.79-2-3Z"/><path style="opacity:.145" fill="#868582" d="M374.5 159.5c1.406.473 2.073 1.473 2 3-1.406-.473-2.073-1.473-2-3Z"/><path style="opacity:.58" fill="#87857c" d="M274.5 162.5c1.548.321 2.215 1.321 2 3-.901-.79-1.568-1.79-2-3Z"/><path style="opacity:.663" fill="#787871" d="M643.5 164.5c1.548.321 2.215 1.321 2 3-.901-.79-1.568-1.79-2-3Z"/><path style="opacity:.251" fill="#464546" d="m639.5 155.5-2 30a256.827 256.827 0 0 1 1-32c.798.457 1.131 1.124 1 2Z"/><path style="opacity:.906" fill="#ebba4f" d="M105.5 141.5c-.307 9.387.027 18.72 1 28a7.248 7.248 0 0 1-2 2.5 813.595 813.595 0 0 1-57 1.5 577.768 577.768 0 0 1 57-3c-.327-9.848.006-19.514 1-29Z"/><path style="opacity:.251" fill="#8c8b86" d="M523.5 171.5c1.628-1.353 2.962-1.019 4 1l-4-1Z"/><path style="opacity:1" fill="#565654" d="M645.5 168.5c2.97.859 3.97 2.526 3 5-1.237-1.465-2.237-3.132-3-5Z"/><path style="opacity:.549" fill="#ecc15a" d="M-.5 154.5c.79 1.109 1.29 2.442 1.5 4 .5 5.323.666 10.656.5 16a796.226 796.226 0 0 1 45-1 2094.187 2094.187 0 0 0-42.5 3 11.462 11.462 0 0 1-2.5-1 168.716 168.716 0 0 0-2-6v-15Z"/><path style="opacity:.098" fill="#9fa1a1" d="M299.5 184.5c.543.06.876.393 1 1-4.818 1.312-9.485 1.312-14 0 4.532.318 8.866-.015 13-1Z"/><path style="opacity:1" fill="#fd0265" d="M116.5 215.5v1a52.016 52.016 0 0 0 1.5 10 224.825 224.825 0 0 0 5.5 7c1.475 8.468 5.475 15.468 12 21a19.22 19.22 0 0 1 1 6c3.816.59 5.483 2.923 5 7-2.124.531-3.624 1.865-4.5 4a8.43 8.43 0 0 0-.5 4 91.679 91.679 0 0 1-7 11c-1.544.203-2.878.87-4 2a901.344 901.344 0 0 0-4 11 49.698 49.698 0 0 1-6 10 575.2 575.2 0 0 0-6 5c-1.359 3.624-3.526 6.624-6.5 9l-1 5c-2.02 1.947-3.52 4.28-4.5 7l-4 1a704.779 704.779 0 0 0-8-2c-6.27-4.601-11.937-9.934-17-16l-4-8h-4c-3.794-3.453-6.794-7.453-9-12-1.474-2.827-1.14-5.327 1-7.5-1.655-2.498-3.988-3.998-7-4.5-.886-.825-1.219-1.825-1-3-1.175.219-2.175-.114-3-1a32.412 32.412 0 0 1-1.5-6l-1 1a15.45 15.45 0 0 1-3-5c-.67-.752-1.504-1.086-2.5-1 .628-4.538-.872-8.205-4.5-11-1.74-3.409-2.74-7.076-3-11-5.218-5.611-8.552-12.278-10-20-.377-1.442-1.21-2.442-2.5-3a191.755 191.755 0 0 1-5-24c34-1.3 68-2.633 102-4 .766 4.332 1.6 8.666 2.5 13 .949 1.593 2.115 2.926 3.5 4Z"/><path style="opacity:.941" fill="#999a99" d="M226.5 197.5c2.292-.256 4.459.077 6.5 1l1 29c1.356.88 2.856 1.214 4.5 1 .354 5.704-2.313 7.537-8 5.5l-3.5-3.5a544.417 544.417 0 0 1-.5-33Z"/><path style="opacity:.987" fill="#a2a2a0" d="M329.5 197.5h7c1.282 6.39-1.051 8.39-7 6-1.194-2.016-1.194-4.016 0-6Z"/><path style="opacity:.825" fill="#de4477" d="M116.5 215.5c-1.385-1.074-2.551-2.407-3.5-4-.9-4.334-1.734-8.668-2.5-13-34 1.367-68 2.7-102 4a191.755 191.755 0 0 0 5 24c-3.635-8.247-6.302-16.914-8-26 35-1.731 70-2.898 105-3.5a960.522 960.522 0 0 1 6 18.5Z"/><path style="opacity:.972" fill="#9e9e9d" d="M343.5 200.5c7-1.667 9.667 1 8 8h4a12.93 12.93 0 0 1-.5 5 20.532 20.532 0 0 0-4.5 2.5 73.396 73.396 0 0 1 1.5 11.5c1.011.837 2.178 1.17 3.5 1 .747 5.567-1.587 7.4-7 5.5a11.532 11.532 0 0 1-4.5-3.5 130.373 130.373 0 0 0-1.5-16c-2.795-2.466-2.628-4.799.5-7 .497-2.31.663-4.643.5-7Z"/><path style="opacity:.955" fill="#9e9f9e" d="M482.5 200.5h8c-.163 2.357.003 4.69.5 7 1.356.88 2.856 1.214 4.5 1 1.075 4.438-.592 6.438-5 6a72.367 72.367 0 0 0 .5 12c1.049 1.607 2.549 2.273 4.5 2 .354 5.704-2.313 7.537-8 5.5-1.5-.833-2.667-2-3.5-3.5a159.923 159.923 0 0 0-3.5-19 25.97 25.97 0 0 0 2-11Z"/><path style="opacity:.992" fill="#a0a0a0" d="M280.5 206.5c2.427.023 4.76.523 7 1.5 1.376 2.54.71 4.54-2 6-1.941.743-3.774.576-5.5-.5a11.38 11.38 0 0 0-2.5 2 184.29 184.29 0 0 0-1.5 18c-2.064 1.091-4.231 1.258-6.5.5a110.563 110.563 0 0 1-.5-25.5c2.667-1.333 5.333-1.333 8 0a19.602 19.602 0 0 0 3.5-2Z"/><path style="opacity:.964" fill="#9b9b9b" d="M330.5 206.5c1.967-.239 3.801.094 5.5 1 .667 8.667.667 17.333 0 26-2.041.923-4.208 1.256-6.5 1-.305-9.417.028-18.75 1-28Z"/><path style="opacity:.977" fill="#9e9f9e" d="M422.5 206.5c3.35.006 6.35 1.006 9 3 8.218-4.975 14.051-2.975 17.5 6a64.218 64.218 0 0 1 0 16 9.454 9.454 0 0 1-1.5 2.5 18.453 18.453 0 0 1-6 .5 122.16 122.16 0 0 0-1-20c-2.579-.417-4.746.25-6.5 2l-1 17c-2.041.923-4.208 1.256-6.5 1a162.597 162.597 0 0 0-.5-18c-2.075-2.148-4.408-2.482-7-1l-1 18c-2.333 1.333-4.667 1.333-7 0-.5-8.66-.666-17.327-.5-26 2.948-.277 5.781.056 8.5 1a19.602 19.602 0 0 0 3.5-2Z"/><path style="opacity:.966" fill="#9f9f9f" d="M462.5 206.5c11.391-.004 16.058 5.496 14 16.5a114.67 114.67 0 0 0-15 1.5c.502 2.839 2.169 4.172 5 4a65.492 65.492 0 0 0 7-2.5c3.969 3.47 3.302 6.137-2 8-11.399 2.483-17.399-2.017-18-13.5-.189-6.795 2.811-11.462 9-14Zm1 7c2.778-.478 4.778.522 6 3-2.667 1.333-5.333 1.333-8 0a185.977 185.977 0 0 0 2-3Z"/><path style="opacity:.983" fill="#9d9d9d" d="M185.5 197.5c2.292-.256 4.459.077 6.5 1a306.347 306.347 0 0 1 0 35c-5.671.507-11.505.673-17.5.5-2.117-1.731-3.617-3.898-4.5-6.5-1.061-6.224-.394-12.224 2-18 4.001-3.218 8.168-3.551 12.5-1a31.116 31.116 0 0 0 1-11Zm-5 16c5.145 3.059 6.312 7.393 3.5 13-1.888 2.422-3.888 2.422-6 0a30.485 30.485 0 0 1 0-11c.995-.566 1.828-1.233 2.5-2Z"/><path style="opacity:.961" fill="#9f9f9f" d="M249.5 206.5c5.977-.429 10.477 1.904 13.5 7 .667 5 .667 10 0 15-3.682 5.673-8.849 7.507-15.5 5.5-2.833-1.5-5-3.667-6.5-6.5-2.955-9.68-.122-16.68 8.5-21Zm0 8c5.01-.826 7.343 1.341 7 6.5-.031 3.473-1.531 5.973-4.5 7.5a6.547 6.547 0 0 1-3-3c-.678-3.721-.511-7.388.5-11Z"/><path style="opacity:.962" fill="#9e9e9d" d="M310.5 206.5c4.917-.248 9.25 1.085 13 4-1.092 2.096-2.759 3.429-5 4a24.837 24.837 0 0 0-8-1v4c11.052-1.788 15.219 2.545 12.5 13a11.532 11.532 0 0 1-4.5 3.5 42.479 42.479 0 0 1-13 0 20.499 20.499 0 0 0-3.5-2.5c.372-2.42 1.705-4.42 4-6 2.91 2.929 6.243 3.595 10 2 .684-1.284.517-2.451-.5-3.5-12.034.345-15.367-4.655-10-15a38.715 38.715 0 0 0 5-2.5Z"/><path style="opacity:.99" fill="#9e9e9e" d="M377.5 206.5c12.456-.71 17.789 5.124 16 17.5a52.582 52.582 0 0 1-1 10 469.58 469.58 0 0 1-18 0c-4.171-3.854-5.004-8.354-2.5-13.5 4.218-2.178 8.718-3.511 13.5-4-2.71-3.636-5.876-3.969-9.5-1-5.922-3.904-5.422-6.904 1.5-9Zm1 17h7c-.592 4.762-3.092 6.096-7.5 4-.579-1.428-.412-2.762.5-4Z"/><path style="opacity:.979" fill="#9e9e9d" d="M206.5 206.5c7.529-.491 12.362 2.842 14.5 10 1.892 14.782-4.275 20.282-18.5 16.5-4.757-5.788-5.923-12.288-3.5-19.5 1.742-3.246 4.242-5.579 7.5-7Zm2 7c3.737.962 5.404 3.462 5 7.5.101 3.3-1.233 5.8-4 7.5-3.278-1.449-4.612-3.949-4-7.5-.394-3.168.606-5.668 3-7.5Z"/><path style="opacity:.996" fill="#da356e" d="M116.5 216.5a196.028 196.028 0 0 1 7 17 224.825 224.825 0 0 1-5.5-7 52.016 52.016 0 0 1-1.5-10Z"/><path style="opacity:.996" fill="#dd4074" d="M123.5 233.5a319.132 319.132 0 0 1 12 21c-6.525-5.532-10.525-12.532-12-21Z"/><path style="opacity:1" fill="#e33b71" d="M13.5 226.5c1.29.558 2.123 1.558 2.5 3 1.448 7.722 4.782 14.389 10 20 .26 3.924 1.26 7.591 3 11 3.628 2.795 5.128 6.462 4.5 11-8.97-13.883-15.636-28.883-20-45Z"/><path style="opacity:.996" fill="#cccccb" d="M257.5 251.5h22c-3.099 21.873-9.932 42.539-20.5 62-1.333 1.333-2.667 1.333-4 0a588.82 588.82 0 0 0-13.5-31c7.119-9.441 12.452-19.775 16-31Z"/><path style="opacity:.463" fill="#db4f80" d="M135.5 254.5c3.187 3.031 5.853 6.531 8 10.5-.566.995-1.233 1.828-2 2.5.483-4.077-1.184-6.41-5-7a19.22 19.22 0 0 0-1-6Z"/><path style="opacity:.62" fill="#da497a" d="M141.5 267.5c-1.67 2.675-3.336 5.341-5 8a8.43 8.43 0 0 1 .5-4c.876-2.135 2.376-3.469 4.5-4Z"/><path style="opacity:1" fill="#e8316e" d="M33.5 271.5c.996-.086 1.83.248 2.5 1a15.45 15.45 0 0 0 3 5l1-1c.31 2.056.81 4.056 1.5 6 .825.886 1.825 1.219 3 1-.219 1.175.114 2.175 1 3 3.012.502 5.345 2.002 7 4.5-2.14 2.173-2.474 4.673-1 7.5a117.344 117.344 0 0 1-18-27Z"/><path style="opacity:1" fill="#e34678" d="M129.5 286.5a128.376 128.376 0 0 1-8 13 901.344 901.344 0 0 1 4-11c1.122-1.13 2.456-1.797 4-2Z"/><path style="opacity:1" fill="#1585a5" d="M185.5 366.5h-24c-1.181-1.567-2.847-2.401-5-2.5l2-2a32.861 32.861 0 0 0-11 .5 73.807 73.807 0 0 0-14-2.5 31.725 31.725 0 0 1-10.5-5.5c-.122-1.669.212-3.335 1-5a14.587 14.587 0 0 0 4-6 54.628 54.628 0 0 0 4.5-2c1.266-1.937 1.266-4.27 0-7a609.676 609.676 0 0 1 31-50c11.985 9.075 25.485 14.075 40.5 15 5.557.033 10.89-.967 16-3a11.38 11.38 0 0 1 2.5 2 628.822 628.822 0 0 0 12.5 27c2.252 4.14 3.585 8.473 4 13-15.024 14.762-32.858 24.095-53.5 28Z"/><path style="opacity:1" fill="#e04c7b" d="M60.5 310.5h4l4 8a45.408 45.408 0 0 1-8-8Z"/><path style="opacity:1" fill="#e34676" d="M115.5 309.5a729.894 729.894 0 0 1-19 31c-.865 1.083-1.865 1.249-3 .5a78.953 78.953 0 0 1-8-6.5c2.635.642 5.302 1.309 8 2l4-1c.98-2.72 2.48-5.053 4.5-7l1-5c2.974-2.376 5.141-5.376 6.5-9a575.2 575.2 0 0 1 6-5Z"/><path style="opacity:.871" fill="#438a9d" d="M132.5 334.5c1.266 2.73 1.266 5.063 0 7a54.628 54.628 0 0 1-4.5 2 14.587 14.587 0 0 1-4 6c-.788 1.665-1.122 3.331-1 5a31.725 31.725 0 0 0 10.5 5.5 73.807 73.807 0 0 1 14 2.5 32.861 32.861 0 0 1 11-.5l-2 2c2.153.099 3.819.933 5 2.5h-9a616.077 616.077 0 0 1-23-6.5 43.4 43.4 0 0 1-9.5-4.5c3.096-7.507 7.263-14.507 12.5-21Z"/></svg>