<svg width="680" height="367" viewBox="0 0 680 367" fill="none" xmlns="http://www.w3.org/2000/svg">
<g clip-path="url(#clip0_108_123)">
<path opacity="0.937" fill-rule="evenodd" clip-rule="evenodd" d="M122.5 -0.5H129.5C132.458 0.623045 135.46 1.62389 138.5 2.5C135.158 2.66542 131.808 2.49792 128.5 2C126.026 1.963 124.026 1.13 122.5 -0.5Z" fill="#E6DE65"/>
<path fill-rule="evenodd" clip-rule="evenodd" d="M94.5 -0.5H122.5C124.026 1.13 126.026 1.963 128.5 2C131.817 2.498 135.15 2.665 138.5 2.5C143.052 7.268 148.718 9.602 155.5 9.5C160.229 13.201 165.562 15.201 171.5 15.5L175.5 17.5C177.116 21.297 180.116 23.297 184.5 23.5C182.837 37.4447 181.836 51.4605 181.5 65.5C180.833 66.833 180.167 66.833 179.5 65.5C169.121 62.155 158.454 61.655 147.5 64C145.808 65.307 144.475 66.807 143.5 68.5C143.158 69.338 142.492 69.672 141.5 69.5C138.01 69.8716 134.619 70.8889 131.5 72.5C130.571 73.689 130.238 75.022 130.5 76.5C129.178 76.33 128.011 76.663 127 77.5C125.713 75.2119 124.019 73.1784 122 71.5L121 72.5C119.951 70.893 118.451 70.227 116.5 70.5C116.822 68.278 116.155 66.444 114.5 65C111.749 64.0364 109.075 62.8664 106.5 61.5C103.666 58.131 100.996 54.6269 98.5 51C99.863 48.87 99.53 48.37 97.5 49.5C96.304 49.154 96.304 48.654 97.5 48C93.886 48.034 91.553 46.367 90.5 43C91.622 41.387 91.122 40.22 89 39.5C88.4438 40.0193 87.7492 40.3666 87 40.5C85.505 38.837 83.672 37.837 81.5 37.5C79.833 36.5 78.5 35.167 77.5 33.5C75.748 26.404 71.414 21.404 64.5 18.5C65.6341 15.7383 66.9711 13.0643 68.5 10.5C75.355 6.891 82.355 3.891 89.5 1.5C91.2306 1.00599 92.9061 0.33582 94.5 -0.5Z" fill="#E7DF04"/>
<path opacity="0.973" fill-rule="evenodd" clip-rule="evenodd" d="M138.5 2.5C150.266 5.085 161.266 9.418 171.5 15.5C165.562 15.201 160.229 13.201 155.5 9.5C148.718 9.602 143.052 7.268 138.5 2.5Z" fill="#E4DE50"/>
<path fill-rule="evenodd" clip-rule="evenodd" d="M89.5 1.5C82.355 3.891 75.355 6.891 68.5 10.5C66.9711 13.0643 65.6341 15.7383 64.5 18.5C71.414 21.404 75.748 26.404 77.5 33.5C70.8377 27.5044 64.4956 21.1623 58.5 14.5C67.786 7.691 78.119 3.358 89.5 1.5Z" fill="#E4DD3C"/>
<path fill-rule="evenodd" clip-rule="evenodd" d="M175.5 17.5C178.492 19.5124 181.492 21.5124 184.5 23.5C180.116 23.297 177.116 21.297 175.5 17.5Z" fill="#E5DF5D"/>
<path fill-rule="evenodd" clip-rule="evenodd" d="M44.5 33.4999C45.156 35.4839 45.822 37.4839 46.5 39.4999C46.3229 40.5454 45.9856 41.5573 45.5 42.4999L46.5 43.4999C48.173 41.9139 50.173 41.2469 52.5 41.4999C54.167 42.4999 55.5 43.8329 56.5 45.4999C56.617 49.3569 58.45 52.0239 62 53.4999L65 58.4999C65.414 58.0429 65.914 57.7099 66.5 57.4999C67.2937 59.064 67.8017 60.7572 68 62.4999C69.05 61.4829 70.216 61.3159 71.5 61.9999C76.195 66.1999 80.195 71.0339 83.5 76.4999C85.7067 77.7727 88.0564 78.7797 90.5 79.4999H91.5C91.525 82.1789 92.858 83.5119 95.5 83.4999C95.744 85.1542 96.4356 86.7102 97.5 87.9999C96.55 88.7179 96.383 89.5499 97 90.4999C99.04 91.4229 101.208 91.7559 103.5 91.4999C104.805 94.1805 106.139 96.8473 107.5 99.4999C109.517 100.219 111.183 101.386 112.5 103C110.549 107.587 109.53 112.516 109.5 117.5C108.043 119.242 106.876 121.242 106 123.5C105.501 128.818 105.334 134.161 105.5 139.5V141.5C104.506 150.986 104.173 160.652 104.5 170.5C85.4622 170.56 66.439 171.561 47.5 173.5H46.5C31.4936 173.409 16.4876 173.743 1.5 174.5C1.666 169.156 1.5 163.823 1 158.5C0.79 156.942 0.29 155.609 -0.5 154.5V132.5C1.17 125.396 2.338 118.063 3 110.5C3.76794 107.518 4.94583 104.658 6.5 102C5.944 101.617 5.61 101.117 5.5 100.5C7.39925 94.5203 9.23269 88.5199 11 82.4999L14 81.4999C13.57 76.1999 15.237 71.8669 19 68.4999C20.815 65.7749 21.315 62.9419 20.5 59.9999C21.3978 57.1315 22.3984 54.2964 23.5 51.4999C25.796 49.5999 27.629 47.2659 29 44.4999C33.532 41.6799 36.365 37.6799 37.5 32.4999C39.873 29.1009 42.206 29.4339 44.5 33.4999Z" fill="#FEAB01"/>
<path fill-rule="evenodd" clip-rule="evenodd" d="M44.5 33.5C47.5 35.833 50.167 38.5 52.5 41.5C50.173 41.247 48.173 41.914 46.5 43.5L45.5 42.5C45.987 41.554 46.32 40.554 46.5 39.5C45.822 37.484 45.156 35.484 44.5 33.5Z" fill="#F4B53F"/>
<path fill-rule="evenodd" clip-rule="evenodd" d="M37.5 32.5C36.365 37.68 33.532 41.68 29 44.5C27.629 47.266 25.796 49.6 23.5 51.5C26.9054 44.3277 31.6584 37.8772 37.5 32.5Z" fill="#EFB63F"/>
<path opacity="0.741" fill-rule="evenodd" clip-rule="evenodd" d="M184.5 23.5C185.65 28.316 185.816 33.316 185 38.5C184.232 47.5472 183.064 56.556 181.5 65.5C181.836 51.4605 182.837 37.4447 184.5 23.5Z" fill="#E4DC5A"/>
<path fill-rule="evenodd" clip-rule="evenodd" d="M81.5 37.5C83.672 37.837 85.505 38.837 87 40.5C87.7492 40.3666 88.4438 40.0193 89 39.5C91.122 40.22 91.622 41.387 90.5 43C91.553 46.367 93.886 48.034 97.5 48C96.304 48.654 96.304 49.154 97.5 49.5C99.53 48.37 99.863 48.87 98.5 51C100.996 54.6269 103.666 58.131 106.5 61.5C97.613 54.284 89.28 46.284 81.5 37.5Z" fill="#E5DE4E"/>
<path opacity="0.996" fill-rule="evenodd" clip-rule="evenodd" d="M209.5 45.5C212.731 47.22 215.564 49.553 218 52.5C232.229 68.8353 244.48 86.7928 254.5 106L253.5 107C246.182 107.667 238.818 107.667 231.5 107C225.083 97.247 217.249 88.747 208 81.5C207.225 80.2867 206.714 78.9238 206.5 77.5L209.5 45.5Z" fill="#CCCCCB"/>
<path fill-rule="evenodd" clip-rule="evenodd" d="M179.5 65.4999C174.66 64.8801 169.827 64.2134 165 63.4999C157.658 64.2953 150.439 65.9741 143.5 68.4999C144.475 66.8069 145.808 65.3069 147.5 63.9999C158.454 61.6549 169.121 62.1549 179.5 65.4999Z" fill="#E5DF59"/>
<path fill-rule="evenodd" clip-rule="evenodd" d="M23.5 51.5C22.3984 54.2964 21.3978 57.1316 20.5 60C21.315 62.942 20.815 65.775 19 68.5C15.237 71.867 13.57 76.2 14 81.5L11 82.5C9.23269 88.52 7.39925 94.5203 5.5 100.5C5.748 96.094 6.415 91.76 7.5 87.5C10.342 74.277 15.675 62.277 23.5 51.5Z" fill="#F3B12D"/>
<path fill-rule="evenodd" clip-rule="evenodd" d="M106.5 61.5C109.075 62.8664 111.749 64.0364 114.5 65C116.155 66.444 116.822 68.278 116.5 70.5C118.451 70.227 119.951 70.893 121 72.5L122 71.5C124.019 73.1784 125.713 75.2119 127 77.5C128.011 76.663 129.178 76.33 130.5 76.5C130.238 75.022 130.571 73.689 131.5 72.5C134.619 70.8889 138.01 69.8716 141.5 69.5C136.511 73.3076 131.674 77.3107 127 81.5C119.682 75.3486 112.83 68.6637 106.5 61.5Z" fill="#E3DD37"/>
<path fill-rule="evenodd" clip-rule="evenodd" d="M56.5 45.5C68.1642 56.4975 79.5025 67.8358 90.5 79.5C88.0564 78.7798 85.7067 77.7728 83.5 76.5C80.195 71.034 76.195 66.2 71.5 62C70.216 61.316 69.05 61.483 68 62.5C67.8017 60.7573 67.2937 59.0641 66.5 57.5C65.9242 57.7025 65.4084 58.0464 65 58.5L62 53.5C58.45 52.024 56.617 49.357 56.5 45.5Z" fill="#F0B332"/>
<path opacity="0.906" fill-rule="evenodd" clip-rule="evenodd" d="M91.5 79.5C93.167 80.5 94.5 81.833 95.5 83.5C92.858 83.512 91.525 82.179 91.5 79.5Z" fill="#EFC56D"/>
<path fill-rule="evenodd" clip-rule="evenodd" d="M95.5 83.5C98.5 85.833 101.167 88.5 103.5 91.5C101.208 91.756 99.04 91.423 97 90.5C96.383 89.55 96.55 88.718 97.5 88C96.4356 86.7103 95.744 85.1543 95.5 83.5Z" fill="#F4B440"/>
<path opacity="0.906" fill-rule="evenodd" clip-rule="evenodd" d="M103.5 91.5C107.493 94.8257 111.174 98.5075 114.5 102.5C112.634 107.431 110.966 112.435 109.5 117.5C109.53 112.516 110.549 107.587 112.5 103C111.183 101.386 109.517 100.219 107.5 99.5C106.139 96.8474 104.805 94.1806 103.5 91.5Z" fill="#EDBA48"/>
<path opacity="0.671" fill-rule="evenodd" clip-rule="evenodd" d="M7.5 87.5C6.41497 91.7586 5.74517 96.1122 5.5 100.5C5.61 101.117 5.944 101.617 6.5 102C4.94583 104.658 3.76794 107.518 3 110.5C2.338 118.063 1.17 125.396 -0.5 132.5V122.5C0.927831 112.761 2.76277 103.086 5 93.5C5.566 91.277 6.4 89.277 7.5 87.5Z" fill="#EBBE51"/>
<path opacity="0.993" fill-rule="evenodd" clip-rule="evenodd" d="M242.5 138.5C243.375 149.143 243.709 159.823 243.5 170.5C242.314 176.529 238.98 181.029 233.5 184C210.182 189.827 198.848 180.66 199.5 156.5C197.396 143.254 202.063 133.421 213.5 127C219.147 126.333 224.853 126.333 230.5 127C236.348 129.016 240.348 132.85 242.5 138.5ZM229.5 140.5C229.989 141.995 230.655 143.329 231.5 144.5C231.666 152.507 231.5 160.507 231 168.5C226.301 176.921 220.634 177.588 214 170.5C211.757 160.378 212.09 150.378 215 140.5C219.902 136.527 224.736 136.527 229.5 140.5Z" fill="white"/>
<path opacity="0.991" fill-rule="evenodd" clip-rule="evenodd" d="M553.5 139.5C551.798 139.374 550.119 139.038 548.5 138.5C543.907 137.451 539.156 137.281 534.5 138C531.064 141.06 530.731 144.393 533.5 148C538.327 149.727 543.38 150.738 548.5 151C556.681 153.684 561.014 159.351 561.5 168C560.47 177.703 555.137 183.703 545.5 186C537.192 187.248 529.192 186.248 521.5 183C519.5 181.667 517.833 180 516.5 178C518.667 175.661 521.007 173.489 523.5 171.5L527.5 172.5C533.774 175.994 540.107 176.16 546.5 173C549.343 169.381 549.01 166.048 545.5 163C540.101 162.386 534.754 161.384 529.5 160C522.303 157.469 518.636 152.302 518.5 144.5C520.166 132.003 527.333 125.67 540 125.5C547.694 125.104 554.194 127.604 559.5 133C557.986 135.678 555.986 137.845 553.5 139.5Z" fill="white"/>
<path opacity="0.993" fill-rule="evenodd" clip-rule="evenodd" d="M157.5 126.5H169.5V174.5C178.418 174.183 187.251 174.516 196 175.5C196.789 179.091 196.622 182.591 195.5 186C182.673 186.823 169.801 186.656 157 185.5C156.18 165.76 156.347 146.093 157.5 126.5Z" fill="white"/>
<path opacity="0.997" fill-rule="evenodd" clip-rule="evenodd" d="M294.5 133.5C294.427 135.027 295.094 136.027 296.5 136.5C300.291 145.224 298.624 152.724 291.5 159C290.578 159.479 289.528 159.654 288.5 159.5C291.973 167.918 295.64 176.253 299.5 184.5C295.366 185.485 291.032 185.818 286.5 185.5C282.753 179.048 279.413 172.369 276.5 165.5C276.715 163.821 276.048 162.821 274.5 162.5H267.5V186.5C263.233 186.797 259.066 186.464 255 185.5C254.5 165.836 254.333 146.169 254.5 126.5C264.839 126.334 275.172 126.5 285.5 127C289.276 128.209 292.276 130.376 294.5 133.5ZM267.5 137.5C271.84 137.334 276.186 137.501 280.5 138C285.626 140.553 286.793 144.386 284 149.5C283.249 150.126 282.406 150.632 281.5 151C276.851 151.499 272.173 151.666 267.5 151.5V137.5Z" fill="white"/>
<path opacity="0.998" fill-rule="evenodd" clip-rule="evenodd" d="M309.5 126.5H349.5V137.5H321.5V150.5H344.5V161.5C336.875 162.636 329.125 162.636 321.5 161.5V174.5C330.506 174.334 339.506 174.5 348.5 175C349.622 178.409 349.789 181.909 349 185.5C335.858 186.491 322.675 186.824 309.5 186.5C308.201 166.521 308.201 146.479 309.5 126.5Z" fill="white"/>
<path opacity="0.995" fill-rule="evenodd" clip-rule="evenodd" d="M401.5 185.5C401.832 174.823 401.498 164.136 400.5 153.5C399.702 153.957 399.369 154.624 399.5 155.5C397.105 162.13 393.734 168.365 389.5 174C387.214 174.667 384.786 174.667 382.5 174C379.791 170.479 377.791 166.646 376.5 162.5C376.573 160.973 375.906 159.973 374.5 159.5C373.729 158.129 372.894 156.794 372 155.5C371.5 165.825 371.334 176.164 371.5 186.5C367.233 186.797 363.066 186.464 359 185.5C358.5 165.836 358.333 146.169 358.5 126.5C362.859 126.173 367.242 126.51 371.5 127.5C376.863 136.893 381.704 146.574 386 156.5C390.934 146.965 395.602 137.294 400 127.5C404.401 126.533 408.901 126.2 413.5 126.5C413.667 146.169 413.5 165.836 413 185.5C409.066 186.821 405.233 186.821 401.5 185.5Z" fill="white"/>
<path opacity="0.996" fill-rule="evenodd" clip-rule="evenodd" d="M444.5 126.5H457.5V186.5C453.233 186.797 449.066 186.464 445 185.5C444.5 165.836 444.333 146.169 444.5 126.5Z" fill="white"/>
<path opacity="0.997" fill-rule="evenodd" clip-rule="evenodd" d="M470.5 126.5C480.506 126.334 490.506 126.5 500.5 127C512.111 132.393 515.944 141.226 512 153.5C508.725 159.773 503.558 163.273 496.5 164C491.851 164.499 487.173 164.666 482.5 164.5V186.5H470.5C469.231 166.52 469.231 146.48 470.5 126.5ZM498.5 139.5C498.932 140.71 499.599 141.71 500.5 142.5C501.125 145.97 500.125 148.804 497.5 151C492.628 152.388 487.628 152.888 482.5 152.5V137.5C487.173 137.334 491.851 137.501 496.5 138C497.044 138.717 497.711 139.217 498.5 139.5Z" fill="white"/>
<path opacity="0.991" fill-rule="evenodd" clip-rule="evenodd" d="M569.5 126.5H582.5C582.333 140.837 582.5 155.171 583 169.5C587.084 175.416 592.251 176.583 598.5 173C599.463 171.576 600.299 170.07 601 168.5C601.5 154.504 601.667 140.504 601.5 126.5H614.5C614.921 142.183 614.42 157.876 613 173.5C604.533 187.071 593.033 190.238 578.5 183C575.238 180.408 572.738 177.241 571 173.5C569.563 157.877 569.062 142.183 569.5 126.5Z" fill="white"/>
<path opacity="0.994" fill-rule="evenodd" clip-rule="evenodd" d="M657.5 147.5C658.906 147.027 659.573 146.027 659.5 144.5C661.496 138.383 664.18 132.512 667.5 127C671.479 126.501 675.493 126.334 679.5 126.5V186.5H667.5C667.666 176.161 667.5 165.828 667 155.5C664.098 161.636 660.928 167.642 657.5 173.5C654.463 174.741 651.463 174.741 648.5 173.5C649.47 171.026 648.47 169.359 645.5 168.5V167.5C645.715 165.821 645.048 164.821 643.5 164.5C643.455 163.426 643.108 162.386 642.5 161.5C642.715 159.821 642.048 158.821 640.5 158.5C640.455 157.426 640.108 156.386 639.5 155.5C639.631 154.624 639.298 153.957 638.5 153.5C637.502 164.136 637.168 174.823 637.5 185.5C633.767 186.821 629.934 186.821 626 185.5C625.5 165.836 625.333 146.169 625.5 126.5C629.859 126.173 634.242 126.51 638.5 127.5L653 156.5L657.5 147.5Z" fill="white"/>
<path opacity="0.671" fill-rule="evenodd" clip-rule="evenodd" d="M109.5 117.5C108.269 124.852 106.935 132.186 105.5 139.5C105.334 134.156 105.501 128.823 106 123.5C106.876 121.242 108.043 119.242 109.5 117.5Z" fill="#EEC257"/>
<path opacity="0.208" fill-rule="evenodd" clip-rule="evenodd" d="M294.5 133.5C295.906 133.973 296.573 134.973 296.5 136.5C295.094 136.027 294.427 135.027 294.5 133.5Z" fill="#969592"/>
<path opacity="0.722" fill-rule="evenodd" clip-rule="evenodd" d="M498.5 139.5C500.048 139.821 500.715 140.821 500.5 142.5C499.599 141.71 498.932 140.71 498.5 139.5Z" fill="white"/>
<path opacity="0.475" fill-rule="evenodd" clip-rule="evenodd" d="M548.5 138.5C550.119 139.038 551.798 139.374 553.5 139.5C551.545 140.93 549.879 140.597 548.5 138.5Z" fill="white"/>
<path opacity="0.729" fill-rule="evenodd" clip-rule="evenodd" d="M229.5 140.5C231.176 141.183 231.843 142.517 231.5 144.5C230.655 143.329 229.989 141.995 229.5 140.5Z" fill="white"/>
<path opacity="0.149" fill-rule="evenodd" clip-rule="evenodd" d="M659.5 144.5C659.573 146.027 658.906 147.027 657.5 147.5C657.427 145.973 658.094 144.973 659.5 144.5Z" fill="white"/>
<path opacity="0.453" fill-rule="evenodd" clip-rule="evenodd" d="M242.5 138.5C243.29 139.609 243.79 140.942 244 142.5C244.824 152.009 244.658 161.343 243.5 170.5C243.709 159.823 243.375 149.143 242.5 138.5Z" fill="white"/>
<path opacity="0.255" fill-rule="evenodd" clip-rule="evenodd" d="M401.5 185.5L399.5 155.5C399.369 154.624 399.702 153.957 400.5 153.5C401.498 164.135 401.832 174.823 401.5 185.5Z" fill="white"/>
<path opacity="0.729" fill-rule="evenodd" clip-rule="evenodd" d="M640.5 158.5C642.048 158.821 642.715 159.821 642.5 161.5C641.599 160.71 640.932 159.71 640.5 158.5Z" fill="white"/>
<path opacity="0.145" fill-rule="evenodd" clip-rule="evenodd" d="M374.5 159.5C375.906 159.973 376.573 160.973 376.5 162.5C375.094 162.027 374.427 161.027 374.5 159.5Z" fill="white"/>
<path opacity="0.58" fill-rule="evenodd" clip-rule="evenodd" d="M274.5 162.5C276.048 162.821 276.715 163.821 276.5 165.5C275.599 164.71 274.932 163.71 274.5 162.5Z" fill="white"/>
<path opacity="0.663" fill-rule="evenodd" clip-rule="evenodd" d="M643.5 164.5C645.048 164.821 645.715 165.821 645.5 167.5C644.599 166.71 643.932 165.71 643.5 164.5Z" fill="white"/>
<path opacity="0.251" fill-rule="evenodd" clip-rule="evenodd" d="M639.5 155.5L637.5 185.5C637.167 174.823 637.501 164.135 638.5 153.5C639.298 153.957 639.631 154.624 639.5 155.5Z" fill="white"/>
<path opacity="0.906" fill-rule="evenodd" clip-rule="evenodd" d="M105.5 141.5C105.193 150.887 105.527 160.22 106.5 169.5C106.028 170.472 105.345 171.326 104.5 172C85.5234 173.166 66.5117 173.666 47.5 173.5C66.439 171.562 85.4622 170.56 104.5 170.5C104.173 160.652 104.506 150.986 105.5 141.5Z" fill="#EBBA4F"/>
<path opacity="0.251" fill-rule="evenodd" clip-rule="evenodd" d="M523.5 171.5C525.128 170.147 526.462 170.481 527.5 172.5L523.5 171.5Z" fill="white"/>
<path fill-rule="evenodd" clip-rule="evenodd" d="M645.5 168.5C648.47 169.359 649.47 171.026 648.5 173.5C647.263 172.035 646.263 170.368 645.5 168.5Z" fill="white"/>
<path opacity="0.549" fill-rule="evenodd" clip-rule="evenodd" d="M-0.5 154.5C0.29 155.609 0.79 156.942 1 158.5C1.5 163.823 1.666 169.156 1.5 174.5C16.4876 173.743 31.4936 173.409 46.5 173.5C32.3235 174.356 18.1561 175.356 4 176.5C3.13027 176.266 2.29115 175.93 1.5 175.5C0.870882 173.488 0.204098 171.487 -0.5 169.5V154.5Z" fill="#ECC15A"/>
<path opacity="0.098" fill-rule="evenodd" clip-rule="evenodd" d="M299.5 184.5C300.043 184.56 300.376 184.893 300.5 185.5C295.682 186.812 291.015 186.812 286.5 185.5C291.032 185.818 295.366 185.485 299.5 184.5Z" fill="#9FA1A1"/>
<path fill-rule="evenodd" clip-rule="evenodd" d="M116.5 215.5V216.5C116.674 219.874 117.176 223.223 118 226.5C119.787 228.869 121.621 231.203 123.5 233.5C124.975 241.968 128.975 248.968 135.5 254.5C136.15 256.434 136.487 258.46 136.5 260.5C140.316 261.09 141.983 263.423 141.5 267.5C139.376 268.031 137.876 269.365 137 271.5C136.512 272.773 136.341 274.146 136.5 275.5C134.431 279.328 132.091 283.004 129.5 286.5C127.956 286.703 126.622 287.37 125.5 288.5C124.143 292.158 122.81 295.825 121.5 299.5C119.899 303.057 117.886 306.414 115.5 309.5C113.489 311.153 111.489 312.82 109.5 314.5C108.141 318.124 105.974 321.124 103 323.5L102 328.5C99.98 330.447 98.48 332.78 97.5 335.5L93.5 336.5C90.8373 335.818 88.1705 335.151 85.5 334.5C79.23 329.899 73.563 324.566 68.5 318.5L64.5 310.5H60.5C56.706 307.047 53.706 303.047 51.5 298.5C50.026 295.673 50.36 293.173 52.5 291C50.845 288.502 48.512 287.002 45.5 286.5C44.614 285.675 44.281 284.675 44.5 283.5C43.325 283.719 42.325 283.386 41.5 282.5C40.8099 280.552 40.3076 278.543 40 276.5L39 277.5C37.6917 276.039 36.6736 274.342 36 272.5C35.33 271.748 34.496 271.414 33.5 271.5C34.128 266.962 32.628 263.295 29 260.5C27.26 257.091 26.26 253.424 26 249.5C20.782 243.889 17.448 237.222 16 229.5C15.623 228.058 14.79 227.058 13.5 226.5C11.3231 218.615 9.65305 210.598 8.5 202.5C42.5 201.2 76.5 199.867 110.5 198.5C111.266 202.832 112.1 207.166 113 211.5C113.949 213.093 115.115 214.426 116.5 215.5Z" fill="#FD0265"/>
<path opacity="0.941" fill-rule="evenodd" clip-rule="evenodd" d="M226.5 197.5C228.792 197.244 230.959 197.577 233 198.5L234 227.5C235.356 228.38 236.856 228.714 238.5 228.5C238.854 234.204 236.187 236.037 230.5 234L227 230.5C226.5 219.508 226.333 208.502 226.5 197.5Z" fill="#999A99"/>
<path opacity="0.987" fill-rule="evenodd" clip-rule="evenodd" d="M329.5 197.5H336.5C337.782 203.89 335.449 205.89 329.5 203.5C328.306 201.484 328.306 199.484 329.5 197.5Z" fill="#A2A2A0"/>
<path opacity="0.825" fill-rule="evenodd" clip-rule="evenodd" d="M116.5 215.5C115.115 214.426 113.949 213.093 113 211.5C112.1 207.166 111.266 202.832 110.5 198.5C76.5 199.867 42.5 201.2 8.5 202.5C9.65305 210.598 11.3231 218.615 13.5 226.5C9.865 218.253 7.198 209.586 5.5 200.5C40.5 198.769 75.5 197.602 110.5 197C112.562 203.146 114.562 209.313 116.5 215.5Z" fill="#DE4477"/>
<path opacity="0.972" fill-rule="evenodd" clip-rule="evenodd" d="M343.5 200.5C350.5 198.833 353.167 201.5 351.5 208.5H355.5C355.662 210.183 355.492 211.882 355 213.5C353.401 214.141 351.889 214.981 350.5 216C351.303 219.788 351.804 223.633 352 227.5C353.011 228.337 354.178 228.67 355.5 228.5C356.247 234.067 353.913 235.9 348.5 234C346.731 233.228 345.183 232.025 344 230.5C343.829 225.141 343.329 219.797 342.5 214.5C339.705 212.034 339.872 209.701 343 207.5C343.497 205.19 343.663 202.857 343.5 200.5Z" fill="#9E9E9D"/>
<path opacity="0.955" fill-rule="evenodd" clip-rule="evenodd" d="M482.5 200.5H490.5C490.337 202.857 490.503 205.19 491 207.5C492.356 208.38 493.856 208.714 495.5 208.5C496.575 212.938 494.908 214.938 490.5 214.5C490.334 218.507 490.501 222.521 491 226.5C492.049 228.107 493.549 228.773 495.5 228.5C495.854 234.204 493.187 236.037 487.5 234C486 233.167 484.833 232 484 230.5C483.217 224.102 482.049 217.757 480.5 211.5C481.957 208.022 482.64 204.268 482.5 200.5Z" fill="#9E9F9E"/>
<path opacity="0.992" fill-rule="evenodd" clip-rule="evenodd" d="M280.5 206.5C282.927 206.523 285.26 207.023 287.5 208C288.876 210.54 288.21 212.54 285.5 214C283.559 214.743 281.726 214.576 280 213.5C279.077 214.046 278.235 214.719 277.5 215.5C276.706 221.472 276.205 227.479 276 233.5C273.936 234.591 271.769 234.758 269.5 234C268.35 225.548 268.182 216.991 269 208.5C271.667 207.167 274.333 207.167 277 208.5C278.232 207.955 279.405 207.285 280.5 206.5Z" fill="#A0A0A0"/>
<path opacity="0.964" fill-rule="evenodd" clip-rule="evenodd" d="M330.5 206.5C332.467 206.261 334.301 206.594 336 207.5C336.667 216.167 336.667 224.833 336 233.5C333.959 234.423 331.792 234.756 329.5 234.5C329.195 225.083 329.528 215.75 330.5 206.5Z" fill="#9B9B9B"/>
<path opacity="0.977" fill-rule="evenodd" clip-rule="evenodd" d="M422.5 206.5C425.85 206.506 428.85 207.506 431.5 209.5C439.718 204.525 445.551 206.525 449 215.5C449.667 220.812 449.667 226.188 449 231.5C448.632 232.406 448.126 233.249 447.5 234C445.541 234.494 443.514 234.663 441.5 234.5C441.715 227.817 441.38 221.128 440.5 214.5C437.921 214.083 435.754 214.75 434 216.5L433 233.5C430.959 234.423 428.792 234.756 426.5 234.5C426.666 228.495 426.499 222.486 426 216.5C423.925 214.352 421.592 214.018 419 215.5L418 233.5C415.667 234.833 413.333 234.833 411 233.5C410.5 224.84 410.334 216.173 410.5 207.5C413.448 207.223 416.281 207.556 419 208.5C420.232 207.955 421.405 207.285 422.5 206.5Z" fill="#9E9F9E"/>
<path opacity="0.966" fill-rule="evenodd" clip-rule="evenodd" d="M462.5 206.5C473.891 206.496 478.558 211.996 476.5 223C471.473 223.17 466.462 223.672 461.5 224.5C462.002 227.339 463.669 228.672 466.5 228.5C468.879 227.8 471.216 226.965 473.5 226C477.469 229.47 476.802 232.137 471.5 234C460.101 236.483 454.101 231.983 453.5 220.5C453.311 213.705 456.311 209.038 462.5 206.5ZM463.5 213.5C466.278 213.022 468.278 214.022 469.5 216.5C466.833 217.833 464.167 217.833 461.5 216.5C462.176 215.506 462.843 214.506 463.5 213.5Z" fill="#9F9F9F"/>
<path opacity="0.983" fill-rule="evenodd" clip-rule="evenodd" d="M185.5 197.5C187.792 197.244 189.959 197.577 192 198.5C192.667 210.157 192.667 221.843 192 233.5C186.329 234.007 180.495 234.173 174.5 234C172.383 232.269 170.883 230.102 170 227.5C168.939 221.276 169.606 215.276 172 209.5C176.001 206.282 180.168 205.949 184.5 208.5C185.487 204.922 185.825 201.197 185.5 197.5ZM180.5 213.5C185.645 216.559 186.812 220.893 184 226.5C182.112 228.922 180.112 228.922 178 226.5C177.333 222.864 177.333 219.136 178 215.5C178.995 214.934 179.828 214.267 180.5 213.5Z" fill="#9D9D9D"/>
<path opacity="0.961" fill-rule="evenodd" clip-rule="evenodd" d="M249.5 206.5C255.477 206.071 259.977 208.404 263 213.5C263.667 218.5 263.667 223.5 263 228.5C259.318 234.173 254.151 236.007 247.5 234C244.667 232.5 242.5 230.333 241 227.5C238.045 217.82 240.878 210.82 249.5 206.5ZM249.5 214.5C254.51 213.674 256.843 215.841 256.5 221C256.469 224.473 254.969 226.973 252 228.5C250.695 227.861 249.639 226.805 249 225.5C248.322 221.779 248.489 218.112 249.5 214.5Z" fill="#9F9F9F"/>
<path opacity="0.962" fill-rule="evenodd" clip-rule="evenodd" d="M310.5 206.5C315.417 206.252 319.75 207.585 323.5 210.5C322.408 212.596 320.741 213.929 318.5 214.5C315.906 213.733 313.203 213.395 310.5 213.5V217.5C321.552 215.712 325.719 220.045 323 230.5C321.817 232.025 320.269 233.228 318.5 234C314.192 234.667 309.808 234.667 305.5 234C304.424 233.046 303.251 232.208 302 231.5C302.372 229.08 303.705 227.08 306 225.5C308.91 228.429 312.243 229.095 316 227.5C316.684 226.216 316.517 225.049 315.5 224C303.466 224.345 300.133 219.345 305.5 209C307.225 208.288 308.896 207.453 310.5 206.5Z" fill="#9E9E9D"/>
<path opacity="0.99" fill-rule="evenodd" clip-rule="evenodd" d="M377.5 206.5C389.956 205.79 395.289 211.624 393.5 224C393.487 227.358 393.152 230.706 392.5 234C386.501 234.115 380.499 234.115 374.5 234C370.329 230.146 369.496 225.646 372 220.5C376.218 218.322 380.718 216.989 385.5 216.5C382.79 212.864 379.624 212.531 376 215.5C370.078 211.596 370.578 208.596 377.5 206.5ZM378.5 223.5H385.5C384.908 228.262 382.408 229.596 378 227.5C377.421 226.072 377.588 224.738 378.5 223.5Z" fill="#9E9E9E"/>
<path opacity="0.979" fill-rule="evenodd" clip-rule="evenodd" d="M206.5 206.5C214.029 206.009 218.862 209.342 221 216.5C222.892 231.282 216.725 236.782 202.5 233C197.743 227.212 196.577 220.712 199 213.5C200.742 210.254 203.242 207.921 206.5 206.5ZM208.5 213.5C212.237 214.462 213.904 216.962 213.5 221C213.601 224.3 212.267 226.8 209.5 228.5C206.222 227.051 204.888 224.551 205.5 221C205.106 217.832 206.106 215.332 208.5 213.5Z" fill="#9E9E9D"/>
<path opacity="0.996" fill-rule="evenodd" clip-rule="evenodd" d="M116.5 216.5C119.098 222.054 121.434 227.727 123.5 233.5C121.621 231.203 119.787 228.869 118 226.5C117.176 223.223 116.674 219.874 116.5 216.5Z" fill="#DA356E"/>
<path opacity="0.996" fill-rule="evenodd" clip-rule="evenodd" d="M123.5 233.5C127.764 240.346 131.767 247.351 135.5 254.5C128.975 248.968 124.975 241.968 123.5 233.5Z" fill="#DD4074"/>
<path fill-rule="evenodd" clip-rule="evenodd" d="M13.5 226.5C14.79 227.058 15.623 228.058 16 229.5C17.448 237.222 20.782 243.889 26 249.5C26.26 253.424 27.26 257.091 29 260.5C32.628 263.295 34.128 266.962 33.5 271.5C24.53 257.617 17.864 242.617 13.5 226.5Z" fill="#E33B71"/>
<path opacity="0.996" fill-rule="evenodd" clip-rule="evenodd" d="M257.5 251.5H279.5C276.401 273.373 269.568 294.039 259 313.5C257.667 314.833 256.333 314.833 255 313.5C250.798 303.04 246.296 292.702 241.5 282.5C248.619 273.059 253.952 262.725 257.5 251.5Z" fill="#CCCCCB"/>
<path opacity="0.463" fill-rule="evenodd" clip-rule="evenodd" d="M135.5 254.5C138.687 257.531 141.353 261.031 143.5 265C142.934 265.995 142.267 266.828 141.5 267.5C141.983 263.423 140.316 261.09 136.5 260.5C136.487 258.46 136.15 256.434 135.5 254.5Z" fill="#DB4F80"/>
<path opacity="0.62" fill-rule="evenodd" clip-rule="evenodd" d="M141.5 267.5C139.83 270.175 138.164 272.841 136.5 275.5C136.341 274.146 136.512 272.773 137 271.5C137.876 269.365 139.376 268.031 141.5 267.5Z" fill="#DA497A"/>
<path fill-rule="evenodd" clip-rule="evenodd" d="M33.5 271.5C34.496 271.414 35.33 271.748 36 272.5C36.6736 274.342 37.6917 276.039 39 277.5L40 276.5C40.31 278.556 40.81 280.556 41.5 282.5C42.325 283.386 43.325 283.719 44.5 283.5C44.281 284.675 44.614 285.675 45.5 286.5C48.512 287.002 50.845 288.502 52.5 291C50.36 293.173 50.026 295.673 51.5 298.5C44.2785 290.377 38.2206 281.29 33.5 271.5Z" fill="#E8316E"/>
<path fill-rule="evenodd" clip-rule="evenodd" d="M129.5 286.5C127.094 290.988 124.422 295.329 121.5 299.5C122.81 295.825 124.143 292.158 125.5 288.5C126.622 287.37 127.956 286.703 129.5 286.5Z" fill="#E34678"/>
<path fill-rule="evenodd" clip-rule="evenodd" d="M185.5 366.5H161.5C160.319 364.933 158.653 364.099 156.5 364L158.5 362C154.831 361.547 151.112 361.716 147.5 362.5C142.925 361.218 138.236 360.381 133.5 360C129.686 358.843 126.123 356.977 123 354.5C122.878 352.831 123.212 351.165 124 349.5C125.814 347.866 127.19 345.803 128 343.5C129.529 342.901 131.031 342.234 132.5 341.5C133.766 339.563 133.766 337.23 132.5 334.5C142.023 317.344 152.368 300.658 163.5 284.5C175.485 293.575 188.985 298.575 204 299.5C209.557 299.533 214.89 298.533 220 296.5C220.923 297.046 221.765 297.719 222.5 298.5C226.453 307.597 230.621 316.6 235 325.5C237.252 329.64 238.585 333.973 239 338.5C223.976 353.262 206.142 362.595 185.5 366.5Z" fill="#1585A5"/>
<path fill-rule="evenodd" clip-rule="evenodd" d="M60.5 310.5H64.5L68.5 318.5C65.5103 316.177 62.8227 313.49 60.5 310.5Z" fill="#E04C7B"/>
<path fill-rule="evenodd" clip-rule="evenodd" d="M115.5 309.5C109.425 319.99 103.09 330.326 96.5 340.5C95.635 341.583 94.635 341.749 93.5 341C90.6946 339.01 88.0222 336.839 85.5 334.5C88.135 335.142 90.802 335.809 93.5 336.5L97.5 335.5C98.48 332.78 99.98 330.447 102 328.5L103 323.5C105.974 321.124 108.141 318.124 109.5 314.5C111.489 312.82 113.489 311.153 115.5 309.5Z" fill="#E34676"/>
<path opacity="0.871" fill-rule="evenodd" clip-rule="evenodd" d="M132.5 334.5C133.766 337.23 133.766 339.563 132.5 341.5C131.031 342.234 129.529 342.901 128 343.5C127.19 345.803 125.814 347.866 124 349.5C123.212 351.165 122.878 352.831 123 354.5C126.123 356.977 129.686 358.843 133.5 360C138.236 360.381 142.925 361.218 147.5 362.5C151.112 361.716 154.831 361.547 158.5 362L156.5 364C158.653 364.099 160.319 364.933 161.5 366.5H152.5C144.792 364.482 137.124 362.315 129.5 360C126.163 358.89 122.973 357.379 120 355.5C123.096 347.993 127.263 340.993 132.5 334.5Z" fill="#438A9D"/>
</g>
<defs>
<clipPath id="clip0_108_123">
<rect width="680" height="367" fill="white"/>
</clipPath>
</defs>
</svg>
