<svg xmlns="http://www.w3.org/2000/svg" viewBox="80.57 110 308.6 139.42"><path d="m89 164 2 1c.6866 2.6056 1.2717 5.1764 1.8125 7.8125 4.2434 19.0656 13.9548 36.6043 30.5625 47.5664 19.4816 12.031 41.0662 18.4627 64.0313 13.8633 3.6067-.931 7.0854-1.9935 10.5937-3.2422l3.1016-1.086c4.7805-1.4543 4.7805-1.4543 7.8984-4.914l4 2c-13.0311 13.9777-33.4323 21.4295-52.1016 22.246-23.5769.706-44.0141-6.6891-61.5703-22.6796C94.9351 222.303 94.9351 222.303 93 220v-2h-2c-5.8323-7.0487-10.791-15.5823-10.3945-24.9219C83.6463 169.3537 83.6463 169.3537 89 164Z" fill="#2A7FF9"/><path d="M119 126c2 3 2 3 1.7578 4.996l-.6328 2.4415C115.9597 154.1543 120.0137 174.122 131 192c1.8804 2.527 3.8249 4.7161 6 7v2h2c1.1943 1.444 2.3857 2.8905 3.559 4.3516 13.279 15.1913 34.2577 19.9049 53.441 21.3359 1.9995.1138 3.9993.2218 6 .3125l-1 3c-14.8471 3.4428-31.4552 3.7203-46-1l-3.1484-.961c-20.0235-6.836-36.0543-21.5554-45.5-40.3124C102.4922 179.3489 100.3473 171.1067 99 162l-.504-3.3672c-.7152-6.0384-.8387-10.3053 2.504-15.6328 2.1965-2.494 4.5589-4.7483 7-7l2.5625-2.625c2.7-2.6308 5.5147-4.996 8.4375-7.375Z" fill="#2A7EF8"/><path d="M326 148c3.8656-.7153 7.1539-.9009 11 0 5.088 4.4 8.7611 10.1396 12 16v2h2c1.289 1.6797 1.289 1.6797 2.625 3.875l1.3516 2.1797C356 174 356 174 356 176h2l.8555-1.7793c1.0458-2.0292 2.1749-3.8663 3.457-5.752l1.3203-1.957 2.7344-4.0234 1.3203-1.957 1.1992-1.7637c1.1763-1.8677 2.1574-3.7794 3.1133-5.7676h2c.205-.6432.41-1.2865.621-1.9492C376 149 376 149 378.7853 148.3555l3.2773-.168 3.2852-.207C388 148 388 148 389 149c.0991 1.8664.128 3.7365.1294 5.6055l.0095 3.6301-.006 3.9519c.0006 1.3414.0016 2.6828.0028 4.0242.0015 2.8145-.0007 5.629-.0053 8.4436-.0057 3.6151-.0024 7.2302.0035 10.8453.0036 2.7708.0025 5.5417 0 8.3125-.001 1.9838.002 3.9676.005 5.9513l-.0095 3.6301-.0024 3.2141C389 209 389 209 388 210c-1.6818.2329-3.3712.4126-5.0625.5625l-2.7852.254c-.7102.0605-1.4205.121-2.1523.1835-1.1954-4.6863-1.1276-9.2203-1.0977-14.0195l.0043-2.6018c.0056-2.7304.0182-5.4608.0309-8.1912.005-1.8561.0096-3.7122.0137-5.5684.011-4.5397.0282-9.0794.0488-13.6191l-1.0936 1.5644C364.0254 185.5531 364.0254 185.5531 358 193c-4.5847-1.5425-6.623-5.197-9.25-9l-1.3906-1.9453C344 177.2756 344 177.2756 344 175h-2l-4-7c-.759 5.3582-1.1288 10.549-1.0625 15.9648l.0115 2.1782c.012 2.2649.0307 4.5296.051 6.7945.0265 3.0091.0465 6.0182.0625 9.0273l.0251 2.0957c.0086 1.6468-.0343 3.2936-.0876 4.9395-1.6634 1.6634-3.7826 1.3605-6.0625 1.5625l-2.7852.254c-.7102.0605-1.4205.121-2.1523.1835-1.1695-6.4774-1.1445-12.8568-1.1328-19.4258l-.003-3.5877c-.0006-2.492.0012-4.984.0054-7.476.0054-3.8271 0-7.6541-.0063-11.4812.0006-2.4225.002-4.845.0039-7.2676l-.0061-3.4815.0095-3.2072.0024-2.8295C325 150 325 150 326 148Z" fill="#327DF6"/><path d="M264.1995 147.9148c1.4244.0152 2.8489.0376 4.2732.0657.7564.014 1.5129.0282 2.2923.0428a1282.96 1282.96 0 0 1 4.8246.1088c2.4383.0546 4.876.0836 7.3147.112 1.5645.0355 3.129.0726 4.6934.1114l2.1853.0132c5.9757.1968 11.2822 1.9296 15.7501 6.0426 4.5765 5.205 5.8477 9.6288 5.6466 16.3895-.522 6.3884-3.4426 11.0188-8.1797 15.1992-1.9733 1.0516-3.9703 2.0617-6 3l1.7227 1.9063c3.7745 4.184 7.5446 8.3721 11.2773 12.5937l1.6875 1.9063C313 207 313 207 314 209c-2.4955 2.4955-3.4042 2.4325-6.875 2.4375-7.3772-.7571-10.9156-5.6637-15.3984-11.043A774.093 774.093 0 0 1 289 197c-2.9152-3.9986-2.9152-3.9986-6.8125-6.8125L280 190l-8-1v21h-11c-.881-3.5238-1.1265-6.0885-1.1294-9.6707l-.0095-3.4474.006-3.7061-.0028-3.8095c-.0007-2.6554.0007-5.3108.0053-7.9662.0057-3.4099.0024-6.8197-.0035-10.2296-.0045-3.2482-.0014-6.4965.001-9.7447l-.006-3.7246.0095-3.4187.0024-3.0252c.201-3.574.6497-3.2446 4.3265-3.3425ZM272 159v20c3.3963.081 6.7907.1405 10.1875.1875l2.9082.0762c6.9633.1229 6.9633.1229 12.9043-3.2637 2.5186-4.1213 2.0885-7.395 1-12-1.8262-3.1544-2.4859-3.8286-6-5-1.6272-.0814-3.2575-.1075-4.8867-.0977l-2.8418.0098-2.959.0254-2.9941.0137c-2.4395.0118-4.879.0297-7.3184.0488Z" fill="#317DF3"/><path d="M158 110c-.5484 3.7539-1.4878 6.0365-3.75 9.0625-10.884 15.672-12.5893 33.3523-9.6685 51.7021C146.5452 181.2541 150.6966 190.3844 157 199l2.25 3.125c6.0749 6.351 12.914 11.8699 20.75 15.875l-1 2c-15.1383-2.6375-28.2686-12.3764-38-24v-2h-2c-10.518-18.3615-17.2007-37.391-11.9766-58.754 4.4129-15.4062 4.4129-15.4062 8.8164-18.5663l2.0977-.8047 2.379-.9297L143 114l3.1523-1.1328C154.4231 110 154.4231 110 158 110Z" fill="#2A7EFA"/><path d="M244 155c.9219 1.9922.9219 1.9922 1 4-1.3649 2.3337-3.1419 4.006-5 6l-1.836-1.0586c-6.7664-3.6747-12.8719-5.978-20.6171-4.461-4.5273 1.3568-8.256 3.035-11.5469 6.5196-3.7006 6.8726-4.6538 13.0115-3.125 20.5625 1.6235 5.2818 4.0448 8.112 8.5938 11.1914 6.8398 3.3671 13.511 2.6258 20.5312.2461l2.75-1.6875C237 195 237 195 239 195c2.9473 1.4736 4.8419 3.5422 7 6v2c-2.2656 1.6914-2.2656 1.6914-5.25 3.5625l-2.9531 1.879c-7.5595 4.2125-18.5576 3.7162-26.8906 1.875-8.3572-3.1082-13.8808-8.1089-17.9063-16.0274-4.2174-9.654-3.9151-18.5123-.3164-28.3555 3.4252-7.633 7.9411-12.6414 15.6523-15.9961C220.6321 145.6104 233.7596 146.0262 244 155Z" fill="#2877F5"/><path d="m190 112 1 3a1003.6397 1003.6397 0 0 1-4.25 3.375l-2.3906 1.8984C182 122 182 122 179.828 122.9766c-2.3538 1.3177-2.7376 2.5922-3.8281 5.0234-1.0585 1.3531-2.1443 2.6851-3.25 4-10.1383 12.9627-14.8013 28.6324-13.75 45 .0575 1.3463.1134 2.6926.168 4.039.2496 5.4944.2496 5.4944.832 10.961l2 1v7c-8.1278-6.6226-11.594-19.0233-13-29-1.6694-19.4218 1.0682-37.9253 13.1602-53.8438 8.3988-9.6334 15.9965-7.367 27.8398-5.1562Z" fill="#3180F1"/><path d="m121 219 2.2383 1.3555c19.9531 11.8907 40.8317 18.5039 64.2148 13.8789 3.5992-.918 7.0532-1.9772 10.5469-3.2344l3.0977-1.086c4.783-1.4532 4.783-1.4532 7.9023-4.914l4 2c-13.0311 13.9777-33.4323 21.4295-52.1016 22.246-15.7794.4682-28.6821-2.0344-42.8984-9.246v-1l7-1 1 3c4.4303 1.6505 8.2905 2.2297 13 2l1 4h2l1-7h5v-5l-13-5v2c-4.2794-.4755-6.0642-3.0642-9-6-2.6653-1.319-2.6653-1.319-5-2v-5Z" fill="#287EFA"/><path d="M263 151h35l2 4 3-1 2 1 2 7 2 1v10l-3 1-2 2-2-1 1-3c-.2766-2.134-.2766-2.134-.875-4.375-.7804-3.1985-1.4968-6.3926-2.125-9.625-9.3426-1.13-18.6085-1.099-28-1-.1978 3.3953-.3814 6.7913-.5625 10.1875l-.17 2.9082-.1464 2.8223-.1428 2.5866c-.0717 2.5311-.0717 2.5311.6391 5.063.4649 2.9556-.239 3.8508-1.6174 6.4324-.2734 2.5127-.2734 2.5127-.1953 5.2031l.0195 2.9688.0508 3.0781.0273 3.125c.0236 2.5419.0565 5.0833.0977 7.625h-8l1-58Z" fill="#2678FA"/><path d="m211.375 123.625 2.6484 1.3516L216 126v4l-6.1523.586L208 131l-1 2c-1.7852.711-1.7852.711-4.0625 1.375-12.4262 3.9983-21.6267 11.1749-28.4023 22.5156-3.5866 7.2644-6.1105 15.137-7.5352 23.1094h-2c-3.0143-15.0714 1.752-29.3474 10-42 9.4015-12.4746 21.3134-22.1093 36.375-14.375Z" fill="#2B7FF4"/><path d="M388 150v60h-8c-1-1-1-1-1.1203-2.8286l.0068-2.4158.0002-2.7299.0156-2.9671.0043-3.0225c.0056-3.1995.0182-6.399.0309-9.5986.005-2.1634.0096-4.3268.0137-6.4902.011-5.3158.0278-10.6316.0488-15.9473-3.1179.6464-3.1179.6464-4 3h-2c-1.3463-7.2209-1.3463-7.2209.25-10.8125L375 154l1.3125-1.75c3.43-2.5407 7.5699-2.25 11.6875-2.25Z" fill="#2877F9"/><path d="M145 177c1.6185 2.4277 2.652 4.4092 3.75 7.0625C155.3031 199.0202 165.3336 210.5038 180 218l-1 2c-15.1383-2.6375-28.2686-12.3764-38-24v-2h-2c-4-6.75-4-6.75-4-9 2.375.25 2.375.25 5 1 1.375 1.9375 1.375 1.9375 2 4l-1 2 2 1v2l4-3-2-3c-.1953-2.918-.1953-2.918-.125-6.1875.018-1.0867.036-2.1734.0547-3.293L145 177Z" fill="#347FE9"/><path d="M199 161h2l2 6h-2l.5 2.4375c.9782 6.9695.5093 13.6232-.5 20.5625l2 1c.625 2.0625.625 2.0625 1 4l-2 1c-.6556 2.5273-.6556 2.5273-1 5l-2-1v-3h-2v-2h-2c-6.5091-16.1971-6.5091-16.1971-3.875-24.25 1.587-3.6808 3.8423-6.1163 6.875-8.75l1-1Z" fill="#2A79F7"/><path d="m154 215 3.375 1.6445C172.1166 223.633 185.6956 226.2612 202 227l-1 3c-19.8667 4.6068-40.5563 2.8185-59-6-1.8672-1.6563-1.8672-1.6563-3-3 2.125-.75 2.125-.75 5-1 3.3125 1.9375 3.3125 1.9375 6 4l1-4 5 1c-1 2-1 2-3 3 1.9411 2.6262 3.124 3.0298 6.375 3.8125 3.6319.1879 5.4837-.057 8.625-1.8125l1-2-13-5v-2h-2v-2Z" fill="#3680EA"/><path d="m283 187 7 1v2c3.287.7995 4.7102 1.0966 8 0a10354.147 10354.147 0 0 1 5.75 6.6875l1.6328 1.8965c2.9387 3.4225 5.825 6.8716 8.6172 10.416-2.4955 2.4955-3.4042 2.4325-6.875 2.4375-7.3963-.7775-10.953-5.6415-15.4414-11.0547A713.872 713.872 0 0 1 289 197l-2.0898-2.5703C283 189.443 283 189.443 283 187Z" fill="#2577F7"/><path d="M264.1995 147.9148c1.4244.0152 2.8489.0376 4.2732.0657.7564.014 1.5129.0282 2.2923.0428a1282.96 1282.96 0 0 1 4.8246.1088c2.4383.0546 4.876.0836 7.3147.112 1.5645.0355 3.129.0726 4.6934.1114l2.1853.0132c5.3821.1772 9.726 1.6002 14.217 4.6313l1 2c-2.375.1875-2.375.1875-5 0l-2-3c-2.3384-.4004-2.3384-.4004-5.0586-.2578l-3.1113.043-3.2676.0898c-7.9405.1668-15.6644.022-23.5625-.875l.5054 2.8394c.6973 4.9145.5326 9.78.4087 14.731l-.0644 3.028c-.046 2.1028-.095 4.2056-.1466 6.3083-.078 3.2146-.1451 6.4293-.211 9.644-.0461 2.0483-.093 4.0965-.1405 6.1446l-.0602 2.9043-.0702 2.7212-.0563 2.3787c-.179 2.4972-.6269 4.8576-1.1649 7.3005h8l-.0352-2.3437c-.0519-5.9957.1234-11.7293 1.0352-17.6563h1v21h-11c-.881-3.5238-1.1265-6.0885-1.1294-9.6707l-.0095-3.4474.006-3.7061-.0028-3.8095c-.0007-2.6554.0007-5.3108.0053-7.9662.0057-3.4099.0024-6.8197-.0035-10.2296-.0045-3.2482-.0014-6.4965.001-9.7447l-.006-3.7246.0095-3.4187.0024-3.0252c.201-3.574.6497-3.2446 4.3265-3.3425Z" fill="#4086F1"/><path d="m156 136 2.875 1.5625L162 139l2-1c-.75 5.75-.75 5.75-3 8l.0625 2.75c-.0732 3.8044-1.1946 5.9812-3.0625 9.25h-1v6l-2.4375.875c-2.6951.8576-2.6951.8576-3.5625 3.125-1.8298-22.9218-1.8298-22.9218 3.125-30.0625L156 136Z" fill="#297EFB"/><path d="m89 164 2 1c.6867 2.6057 1.2736 5.176 1.8125 7.8125 1.4476 6.6971 3.4101 12.7354 6.332 18.9648L100 194l-1 2h-2c-2.4621-5.2708-4.4657-10.3743-6-16-.954-2.6864-1.9734-5.34-3-8l-.375 3.3125C87 179 87 179 85 182h2v2l2 1-.4727 1.8984-.5898 2.4766-.5977 2.461c-.5609 2.2056-.5609 2.2056.6602 4.164.0402 2.333.0432 4.667 0 7h-2l-1-4v7c-4.2503-5.5439-4.6034-9.0606-4-16 .5076-3.085 1.1411-6.1343 1.8125-9.1875l.5007-2.3027c2.659-11.482 2.659-11.482 5.6868-14.5098Z" fill="#347FF0"/><path d="M158 110c-.5558 3.857-1.6128 6.2806-3.875 9.4375-2.3869 3.4312-4.3754 6.7717-6.125 10.5625l-3-4 1.4375-1.75c1.511-2.1758 2.1029-3.676 2.5625-6.25h-3l1 3h-2l-2-3c-1.985.2668-1.985.2668-4 1l-1 3h-2v2l-1.375 1.25c-2.1649 2.3314-2.752 4.7283-3.625 7.75h-2l.0625 3.9375c.0215 1.3542.009 2.71-.0625 4.0625l-1 1c-.1566 1.4864-.2507 2.9795-.3164 4.4727l-.127 2.7246-.1191 2.8652-.1309 2.877A2017.7154 2017.7154 0 0 0 127 162h-1c-.7106-15.8121-.2268-29.9493 8-44 1.8398-1.3203 1.8398-1.3203 3.9375-2.125l2.379-.9297L143 114l3.1523-1.1328C154.4231 110 154.4231 110 158 110Z" fill="#2E7FEC"/><path d="M389 149v60h-1v-59c-9.1657 1.0973-9.1657 1.0973-12.625 3.9375-1.6524 2.0654-1.6524 2.0654-1.375 5.0625h-2l1 8h2l1-3h3l1 47h-2c-1.1954-4.6863-1.1276-9.2203-1.0977-14.0195l.0043-2.6018c.0056-2.7304.0182-5.4608.0309-8.1912.005-1.8561.0096-3.7122.0137-5.5684.011-4.5397.0282-9.0794.0488-13.6191l-4 4-1-3-2-2-1-2-4 2c1.3774-4.0173 3.3303-6.7274 6-10l1-3h2l.5-1.9375C376 149 376 149 379.8125 148.1875c3.4803-.3568 5.5425.0835 9.1875.8125Z" fill="#4A85DB"/><path d="M119 126c2 3 2 3 1.7578 4.996l-.6328 2.4415c-2.4304 11.7599-1.7044 24.7169-.125 36.5625-4.0997-4.0997-3.2498-11.3233-3.5-16.875-.2622-5.759-.719-11.4113-1.5-17.125l-1.1875 1.4375C112 139 112 139 109.625 139.1875c-4.2763 1.3236-5.5274 5.0691-7.625 8.8125l-1 1c-.0863 1.3427-.107 2.6897-.0977 4.0352l.0098 2.4511.0254 2.5762.0137 2.5879c.0118 2.1166.0297 4.233.0488 6.3496h-1c-.42-2.6857-.8112-5.3707-1.1875-8.0625l-.3652-2.2793c-.744-5.5439-.1784-8.7471 2.5527-13.6582 1.6484-2.039 1.6484-2.039 3.375-3.625l1.8633-1.75L108 136l2.5625-2.625c2.7-2.6308 5.5147-4.996 8.4375-7.375Z" fill="#3D82E2"/><path d="m234 149-1 2-1.5469-.4648c-3.228-.7043-6.4073-.884-9.7031-1.0977l-3.8281-.254c-.9642-.0605-1.9285-.121-2.9219-.1835v2l-1.9375.375L211 152l-1 2-3 1-1 3h-2l2 4 1.6875-1.5c2.6941-1.7475 4.1663-1.7622 7.3125-1.5l-2.1875 1.6875c-4.4794 3.683-8.037 6.663-9.8125 12.3125h-2v-12l-1.875 1.5C197 164 197 164 195 164l-1 4-1-3c1.6875-2.875 1.6875-2.875 4-6l1.625-2.5625c9.5456-9.7968 22.8473-10.2797 35.375-7.4375Z" fill="#3D7FE7"/><path d="M201 182c1.2743 2.4506 2.246 4.738 3.125 7.375 1.6884 4.1016 4.6324 6.0363 8.2305 8.461.5427.384 1.0854.7682 1.6445 1.164v1h-6v2l-5-1c.7576 3.277.7576 3.277 4 5.0625 6.7367 3.2321 14.6603 3.3036 22 3.9375v1c-10.9359.525-19.8335.215-28.8125-6.6875-5.9247-5.5474-8.6262-12.506-10.1875-20.3125h2l3 11h2v2h2l1-3v6l.3125-1.9375L201 196l3-1-1.5-2c-1.9832-3.9663-1.7236-6.603-1.5-11Z" fill="#3D7EE3"/><path d="M342 156c3.3942 3.1262 5.6063 5.5654 7 10h2c1.3242 1.6797 1.3242 1.6797 2.6875 3.875l1.3867 2.1797L356 174l-1 2-4-1c-.9492 3.2133-.9492 3.2133-1 7 1.413 2.3357 3.0977 4.005 5 6v2h4l-1 3c-4.5847-1.5425-6.623-5.197-9.25-9l-1.3906-1.9453C344 177.2756 344 177.2756 344 175h-2l-3-6h2l1.4375 2L344 173h3c-.4425-4.8678-1.4787-6.7059-5-10v-7Z" fill="#337AEA"/><path d="M239 195c2.9473 1.4736 4.8419 3.5422 7 6v2c-2.2305 1.6914-2.2305 1.6914-5.1875 3.5625-.963.62-1.9259 1.24-2.918 1.879-2.7305 1.4702-4.844 2.1514-7.8945 2.5585v-2l3-2-3-2v-2l3-1h-10l1-2c1.9744-.4936 3.9505-.9819 5.9375-1.4219 2.276-.5365 2.276-.5365 4.8125-2.2656C237 195 237 195 239 195Z" fill="#397FEE"/><path d="M148 202c2.7746 1.0305 5.1726 2.1084 7.6875 3.6875L158 207l2-1v-3l2.8516 2.5195a9792.4438 9792.4438 0 0 0 3.7734 3.293c.6175.5472 1.235 1.0944 1.871 1.6582 3.6374 3.1587 7.046 5.5747 11.504 7.5293l-1 2c-11.2894-1.967-20.476-7.5867-29-15l-2-3Z" fill="#3A83EA"/><path d="m181 114 4 1Zm-2 1h2v5l-2 1c-.6521 2.0246-.6521 2.0246-1 4h-4l-.625 2.375C172 130 172 130 169 131.3125 166 132 166 132 164 132c-2.0368-4.0737-2.0257-6.5894-1-11l3 1-2 4h2l2-4 3 1v-2h2l1-2 3 2 .4375-2.4375C178 116 178 116 179 115Z" fill="#297FF9"/><path d="M300 158c2.4015 4.653 3.0685 9.8966 4 15h-2l-.3125 1.875C301 177 301 177 298 179c-2.1875-.375-2.1875-.375-4-1l1.9375-1.5c2.7585-3.3436 3.2926-6.2056 3.0625-10.5-1.0823-2.9466-1.0823-2.9466-3-5-2.855-.9517-4.9094-1.19-7.8867-1.3164l-2.8418-.127-2.959-.1191-2.9941-.1309c-2.4394-.106-4.8788-.208-7.3184-.3066v-2c22.6234-1.6883 22.6234-1.6883 28 1Z" fill="#3375E3"/><path d="m209 225 4 2c-3.2873 3.5996-6.9076 6.0566-11 8.625-.6162.3945-1.2323.789-1.8672 1.1953C191.9783 242 191.9783 242 188 242v-2l7-3v-2l-2.1602.4375C187.4623 236.4797 182.4764 237.2434 177 237v-1l3.4805-.6992C189.9278 233.341 199.2974 231.3292 208 227l1-2Z" fill="#3481E3"/><path d="m121 219 2.2383 1.3555C139.17 229.8498 154.383 235.3625 173 236v1c-3.4997.1174-6.999.1876-10.5.25l-2.9766.1016c-6.6338.0884-10.8646-.9703-16.5234-4.3516-1.4873-.6151-2.9843-1.2087-4.5-1.75L135 230v2c-4.2794-.4755-6.0642-3.0642-9-6-2.6653-1.319-2.6653-1.319-5-2v-5Z" fill="#478AE6"/><path d="M305 155c3.7116 3.3404 5.7371 6.0428 6.1875 11.1094.2035 7.5818-1.4349 12.7325-6.5234 18.4101-2.323 2.0667-4.6558 2.8359-7.6641 3.4805l1-4 4 1c.2236-2.9255.2236-2.9255-1-5l4-1-3-2 1-3 6-1v-10l-3-1-1-7Z" fill="#2474F1"/><path d="m89 164 2 1c.6867 2.6057 1.2736 5.176 1.8125 7.8125 1.4476 6.6971 3.4101 12.7354 6.332 18.9648L100 194l-1 2h-2c-2.4621-5.2708-4.4657-10.3743-6-16-.954-2.6864-1.9734-5.34-3-8l-.3125 3.3125c-.6606 3.5431-.8902 4.62-3.6875 6.6875-1.2968-3.8905-.4135-5.6853.8125-9.5625l1.082-3.504C87 166 87 166 89 164Z" fill="#4284E1"/><path d="m125 238 1 3c4.4303 1.6505 8.2905 2.2297 13 2l1 4h33v1c-19.4446 3.2853-37.3826.9369-55-8v-1c4.75-1 4.75-1 7-1Z" fill="#4384E0"/><path d="M168 155c2.5619 2.5619 3.1759 4.4795 4 8-.6445 3.0352-.6445 3.0352-1.8125 6.0625-1.377 3.6516-2.5301 7.0851-3.1875 10.9375h-2c-1.618-8.09-1.4973-16.092 1-24l2-1Z" fill="#3889EC"/><path d="M369 163c2.5895 1.2947 2.9604 2.3266 4 5 .5401 4.5603-.7991 6.6953-3.5 10.3125l-1.9688 2.6758L366 183l-1-4h2l2-5-1.9375-.3125L365 173l-1-3-1 3h-2v2l-3 1c2.5696-5.5674 5.2186-10.4136 11-13Z" fill="#3377E3"/><path d="m203 199 1 2c2.0246.6521 2.0246.6521 4 1v-2h15c-1 2-1 2-4.0625 3.125L216 204l1 3c-1 1-1 1-4.1875 1.3125-4.443-.3642-6.4183-1.484-9.8125-4.3125l-1-3 1-2Z" fill="#2878FA"/><path d="M271 189h1v21h-11c-1.6688-6.675-1.6417-12.5608 1-19h1c.0272 2.0624.0465 4.125.0625 6.1875l.0352 3.4805c-.0858 2.925-.4192 5.4952-1.0977 8.332h8l-.0352-2.3438c-.0519-5.9956.1234-11.7292 1.0352-17.6562Z" fill="#5295F1"/><path d="m176 225 26 2-1 3c-10.9416 2.5372-21.8373 2.204-33 2v-1l1.8042-.076c2.6905-.1158 5.3806-.2386 8.0708-.3615l2.8398-.1191 2.7149-.127 2.5073-.111c2.1248-.0878 2.1248-.0878 4.063-1.2054-3.4352-.6246-6.4906-1-10-1v-2l-4-1Z" fill="#4786DE"/><path d="M295 190c3.0798.091 4.0135 1.0142 6.1484 3.2578l2.2266 2.8672 2.3633 2.996L308 202c1.9765 2.355 3.9864 4.6766 6 7-2 2-2 2-4.5313 2.082l-2.9687-.2695-2.9688-.2305C301 210 301 210 299 207l1.5.5c3.5344.7069 6.897.56 10.5.5l-1.5313-1.2422-1.9687-1.6328-1.9688-1.6172L304 202v-2l-1.75-.8125C300 198 300 198 297.9375 196.4375c-1.9793-1.6244-1.9793-1.6244-4.9375-2.4375 0-2 0-2 2-4Z" fill="#3676DA"/><path d="M174 140h1c.6153 5.0761-1.3834 7.8298-4 12l2-2 1 3 3-1-5 10c-1.992-2.5982-3.539-5.0779-5-8 1.0752-2.4433 2.198-4.7675 3.4375-7.125l1.0254-1.996c.8386-1.63 1.687-3.255 2.5371-4.879Z" fill="#3B81E8"/><path d="m177 111 13 1 1 3a3439.285 3439.285 0 0 1-4.3125 3.375l-2.4258 1.8984c-1.7083 1.3042-3.4734 2.5344-5.2617 3.7266l-1-4h3v-5l3-1-7-1v-2Z" fill="#407FDC"/><path d="M160 152c1.0977 3.2932.8808 4.2024.0703 7.461-1.2476 5.7681-1.2974 11.284-1.1953 17.164l.0273 3.043c.0233 2.4442.056 4.888.0977 7.332l-3 1v-32l2 1 2-5Z" fill="#397DD9"/><path d="m208 123 2.3125.9375c1.8754.7414 3.7743 1.4248 5.6875 2.0625v4l-6.1523.586L208 131l-1 2-4-1 3-6h2v-3Z" fill="#3880E4"/><path d="m148 194 3.375 1.8125 1.8984 1.0195C155 198 155 198 157 201c-.375 2.1875-.375 2.1875-1 4-5.75-1.875-5.75-1.875-8-3v-3h-2c.875-3.875.875-3.875 2-5Z" fill="#2880F7"/><path d="m141 149 2 1 .1836 3.6563c.0845 1.6145.1691 3.2291.2539 4.8437l.1191 2.3984c.2705 5.0755.7561 10.0654 1.4434 15.1016h-4c-.3822-1.6561-.714-3.3246-1-5l1-1c.0869-1.5617.107-3.1273.0977-4.6914l-.0098-2.8613-.0254-3.0098-.0137-3.0215c-.0118-2.472-.0283-4.944-.0488-7.416Z" fill="#5090E8"/><path d="m287.25 148.625 2.3047.0005c5.7622.1176 9.6584.9838 14.4453 4.3745l1 2c-2.375.1875-2.375.1875-5 0l-2-3c-2.4157-.509-2.4157-.509-5.2266-.5117-1.0312-.0355-2.0625-.071-3.125-.1074l-3.2734-.0684-3.2969-.1035A855.3855 855.3855 0 0 0 275 151c4.0442-2.2487 7.701-2.3839 12.25-2.375Z" fill="#3874D8"/><path d="M235 150c1.294.62 2.5852 1.2462 3.875 1.875l2.1797 1.0547C243 154 243 154 245 156c-.1132 3.2829-1.2828 4.3035-3.5625 6.75L239 165a158.6228 158.6228 0 0 1-5-3v-1l6-1v-5l-5-2v-3Z" fill="#3E78D6"/><path d="M101 168c2.152 3.228 2.2009 4.284 2 8h2v3l4 1c.9909 3.0827.9248 4.9172 0 8v2h2l-1 3c-3.1123-3.5982-4.5633-7.5383-6.1875-11.9375l-.8262-2.1309c-1.4094-3.769-2.3465-6.841-1.9863-10.9316Z" fill="#4283E4"/><path d="m120 194-1 6h-2l1 4c-3.2879-3.1102-5.8374-6.0162-8-10 3.6954-.9502 6.3046-.9502 10 0Z" fill="#3680EA"/><path d="m177 238 5 1-1 4 7-1c-3.4653 3.4653-8.1609 4.885-13 5.1875L173 247l1-2c2.0625-.625 2.0625-.625 4-1l-1-6Z" fill="#3E84E9"/><path d="M174 227c2.0624-.0272 4.125-.0465 6.1875-.0625l3.4805-.0352c2.925.0858 5.4952.4192 8.332 1.0977-2.4458 2.3093-3.5944 2.99-7.0156 3.0742l-3.2344-.3867-3.2656-.3633L176 230v-2l-2-1Z" fill="#2880FD"/><path d="m151 116 4 1-7 13-3-4 1.4375-1.75c1.534-2.209 1.964-3.6853 2.5625-6.25l2-2Z" fill="#317CE4"/><path d="M119 126c2 3 2 3 1.7578 5.2617l-.6328 2.4258-.6172 2.4492L119 138h-1v-7h-3l-.75 1.9375C113 135 113 135 110.875 135.75L109 136v-2c1.6146-1.4358 3.2922-2.8014 5-4.125l2.8125-2.1953L119 126Z" fill="#558DDB"/><path d="M129 129c1.301 4.3206.7245 7.5806 0 12l-1 1c-.1566 1.4864-.2507 2.9795-.3164 4.4727l-.127 2.7246-.1191 2.8652-.1309 2.877A2017.7154 2017.7154 0 0 0 127 162h-1c-.6192-23.9952-.6192-23.9952 3-33Z" fill="#4D8CE2"/><path d="m176 225 26 2-1 3h-3v-2h-18v-2l-4-1Z" fill="#538FD9"/><path d="M90 215h2v2l1.9375.8125C96 219 96 219 97 222l3 1v2l1.875.75c2.4757 1.4563 3.0763 2.6281 4.125 5.25-3.6306-1.5322-5.9864-3.7183-8.75-6.5l-2.4219-2.4063C93 220 93 220 93 218h-2l-1-3Z" fill="#357DD9"/><path d="M203.375 119.625C206 121 206 121 208 123h-13v3h-6c3.9483-4.2417 8.474-7.4678 14.375-6.375Z" fill="#3980DD"/><path d="M148 234c8.3364.632 16.6695 1.2945 25 2v1c-3.604.087-7.2078.1404-10.8125.1875l-3.1035.0762-2.9785.0293-2.7454.0476c-2.7845-.4018-3.6361-1.1775-5.3601-3.3406Z" fill="#5B98E8"/><path d="m169 164 2 1-4 15h-2c-.9526-4.763-1.0833-9.1667-1-14h1l1 7 3-9Z" fill="#679EE5"/><path d="M146 130c1.1618 3.4854.7707 4.3654-.375 7.75-1.322 4.1171-2.1584 7.9575-2.625 12.25l-2-1v-9h2l.375-2.1875c.6155-2.7697 1.5094-5.2095 2.625-7.8125Z" fill="#387DDE"/><path d="M93 181c3.032 1.516 3.4102 3.8596 4.6875 6.9375l1.3867 3.2773C100 194 100 194 99 196h-2c-4.5923-9.2255-4.5923-9.2255-4-15Z" fill="#327BE0"/><path d="M309 174c.6914 1.7422.6914 1.7422 1 4-2.57 4.3518-5.8247 7.4871-10.4375 9.5L297 188l1-4 4 1 1-3 3-2c.7238-2.0593.7238-2.0593 1-4h2v-2Z" fill="#4784E1"/><path d="m158 110-1 5c-2.146 0-4.292-.0235-6.4375-.0625-2.8102.0493-4.9223.2176-7.5625 1.0625v-2a1217.0943 1217.0943 0 0 1 5.8125-2l3.2695-1.125C155 110 155 110 158 110Z" fill="#4E89E1"/><path d="M305 155c3.1016 2.7914 4.9184 4.9438 6 9 .152 3.0085.118 5.9909 0 9h-1l-1-10-3-1-1-7Z" fill="#3D76D8"/><path d="m170 212 10 6-1 2c-3.5578-.61-6.6829-1.5784-10-3l2-1-1-4Z" fill="#4D8BD9"/><path d="M135 185c2.375.25 2.375.25 5 1 1.375 1.9375 1.375 1.9375 2 4l-1 2 2 2-2 2v-2h-2c-4-6.75-4-6.75-4-9Z" fill="#4286EC"/><path d="m167 159 1 3 3 1-2 1c-.3549 1.9963-.6858 3.997-1 6-.6329 1.3497-1.2938 2.6872-2 4a1028.989 1028.989 0 0 1-.0625-5.8125l-.0352-3.2695C166 162 166 162 167 159Z" fill="#217AEF"/><path d="M174 125c2.1719.3477 2.1719.3477 4 1a2695.9181 2695.9181 0 0 1-3.3125 3.8125l-1.8633 2.1445A100.7335 100.7335 0 0 1 168 137v-4h2l-1-3c2.25-2.5625 2.25-2.5625 5-5Z" fill="#3982E4"/><path d="M297 183v5h-2v-2h-2v2l-2-1c-.625-2.0625-.625-2.0625-1-4 2.6666-1.3333 4.1668-.671 7 0Z" fill="#2276F3"/><path d="M197 133h5c-4.4028 3.669-9.5852 6.195-15 8l-1-3c1-1 1-1 4.0625-1.0625L193 137v-2h4v-2Z" fill="#4584DE"/><path d="M369 163c2.5503 1.2751 2.9308 2.4034 4 5v3c-1.875.625-1.875.625-4 1l-2-2c0-4 0-4 2-7Z" fill="#2678F8"/><path d="M292 199h6l-1 5 5 1-1 2c-2.5391-.3852-3.7275-.701-5.4844-2.629l-1.2656-1.9335-1.2969-1.9414L292 199Z" fill="#3379E4"/><path d="M159 187h1v5l2 1v7c-2.7987-2.5279-4.4577-4.2041-5-8h2v-5Z" fill="#4389DB"/><path d="m157 126 1 2-1 3 3-1c-.6875 2.4375-.6875 2.4375-2 5-2.625.8125-2.625.8125-5 1 .4755-1.4803.9555-2.9593 1.4375-4.4375l.8086-2.496C156 127 156 127 157 126Z" fill="#3E85E6"/><path d="m125 238 1 3c3.512 1.2297 3.512 1.2297 7 2v1c-6.0733.5061-9.7723-.9584-15-4v-1c4.75-1 4.75-1 7-1Z" fill="#357CE3"/><path d="m109 209 6 5c-3.434 1.1447-5.3079 1-9 1 0-2 0-2 2-4l1-2Z" fill="#2F79E4"/><path d="m284 190 6 1v2h2v6c-2.932-2.8528-5.6432-5.6508-8-9Z" fill="#3879DD"/><path d="M348 182c3.7137 1.2379 4.7735 2.8522 7 6v2h4l-1 3c-3.6865-1.4586-5.1614-3.3023-7.25-6.625l-1.5781-2.4766L348 182Z" fill="#5488DA"/><path d="M377.8477 148.9023 384 149v2l-3.3125.9375c-2.2416.6459-4.4744 1.3248-6.6875 2.0625 1.1185-4.9534 1.1185-4.9534 3.8477-5.0977Z" fill="#3473D6"/><path d="M326 148c1.77-.0811 3.5412-.1393 5.3125-.1875l2.9883-.1055C337 148 337 148 338.8555 149.5117L340 151l-1 2-1-1c-2.835-.5338-5.68-.965-8.5313-1.4023L327 150l-1-2Z" fill="#4A80D4"/><path d="m157 176 2 1v10l-3 1 1-12Z" fill="#4489E5"/><path d="m215 159-2.125 1.6875c-2.9884 2.4037-5.9344 4.8506-8.875 7.3125.2882-3.4584.7897-4.7838 3.25-7.3125 2.951-1.8108 4.3651-2.0743 7.75-1.6875Z" fill="#3B75D4"/><path d="M215 153h3l1 4-4 3-3-3c1.3125-2 1.3125-2 3-4Z" fill="#317CF9"/><path d="M189 126c0 3 0 3-1.1875 4.5-2.1664 1.793-4.309 3.2162-6.8125 4.5l-2-1c1.2855-1.3393 2.5786-2.6713 3.875-4l2.1797-2.25C187 126 187 126 189 126Z" fill="#3F7FD8"/><path d="M194 237c-2.2552 2.2552-4.0048 2.9772-7 4h-3c1-3 1-3 3.3125-4.25 2.7862-.7776 4.0219-.7373 6.6875.25Z" fill="#2B81FC"/><path d="M240 196c2.0412 1.616 4.0407 3.2856 6 5v2l-5 2v-4c-.304-1.6723-.6313-3.3408-1-5Z" fill="#3272D4"/><path d="M120 170c1.9039 2.8558 2.6946 4.9312 3.625 8.1875l.789 2.7305L125 183l-4-2v-2l-.5-2.375C120 174 120 174 120 170Z" fill="#3E85DD"/><path d="M221 149c4.8333-.0833 9.237.0474 14 1v2h-4l-1 2-1.125-1.4375c-2.5015-2.0846-4.691-2.2087-7.875-2.5625v-1Z" fill="#2170ED"/><path d="M174 140h1c.4282 3.6397-.0259 5.0457-1.875 8.3125L171 151h-2c1.2222-4.0426 2.6275-7.4929 5-11Z" fill="#3B7DDB"/><path d="M181 115h5v2l-3 1a124.97 124.97 0 0 0-2 5l-2 1-1-4h3v-5Z" fill="#3F88EF"/><path d="m209 225 4 2-5 4v-2l-5 1c2-2 2-2 5-3l1-2Z" fill="#6499D1"/><path d="m85 206 1 2h4l1 6-2 1c-4-5.625-4-5.625-4-9Z" fill="#4383E6"/><path d="m199 194 .4375 1.875c.494 2.1576.494 2.1576 1.5625 4.125l2-1v4l-6-2v-4h2v-3Z" fill="#2872E9"/><path d="m361 183 4 1-5 7c-2-3-2-3-2-5h3v-3Z" fill="#3B79E5"/><path d="M198 228v2c-3.4733 1.1578-6.3607 1.0687-10 1 3.3185-3.0632 5.5515-3.3033 10-3Z" fill="#3C81DF"/><path d="M293 186h2c1.0625 1.875 1.0625 1.875 2 4l-1 2-6-2v-2h3v-2Z" fill="#3880F8"/><path d="m243 161-4 4a158.6228 158.6228 0 0 1-5-3v-1c5.625-1.125 5.625-1.125 9 0Z" fill="#4982DA"/><path d="m163 141 2 1-3 10h-1l-1-7 3-1v-3Z" fill="#3D81DD"/><path d="m206 126 2 1v2l4 2h-4l-1 2-4-1 3-6Z" fill="#4B91E9"/><path d="M148 202c4.4346 1.3937 6.8738 3.6058 10 7-3.5667 0-4.1054-.637-6.6875-2.9375l-1.8867-1.6523L148 203v-1Z" fill="#3D80DB"/><path d="M153 197c2.0625 1.75 2.0625 1.75 4 4-.25 2.25-.25 2.25-1 4l-5-1v-2h3l-1-5Z" fill="#2279F3"/><path d="M129 190c2.5259 2.363 3.8882 3.6646 5 7h-3l-1 2c-.5437-3.0585-1-5.8877-1-9Z" fill="#347BE6"/><path d="m275 185 1 2h6c-3.6342 2.326-6.7709 2.1627-11 2v-2h4v-2Z" fill="#2473EC"/><path d="M160 152c1 3 1 3 .25 5.5-1.1851 2.3702-2.263 3.7839-4.25 5.5v-7l2 1 2-5Z" fill="#3883EA"/><path d="m184 227 8 1c-3.625 3-3.625 3-7 3l-1-4Z" fill="#297CEF"/><path d="m143 220 4 4-2 1c-2.0314-.9345-4.0353-1.9322-6-3l4-2Z" fill="#3C84E7"/><path d="m203 199 1 2c2.0246.6521 2.0246.6521 4 1v2l-4 1c-1.0625-1.875-1.0625-1.875-2-4l1-2Z" fill="#2679FA"/><path d="m372 153 3 1-1 5-5 1 .9375-1.8125c1.1646-2.277 1.1646-2.277 2.0625-5.1875Z" fill="#437BE0"/><path d="M90 215h2v2l1.9375.75C96 219 96 219 96.75 221.125L97 223c-2-1.375-2-1.375-4-3v-2h-2l-1-3Z" fill="#467FDD"/><path d="M167 210c1.3756 1.2897 2.7077 2.6269 4 4v2l-6-1 2-2v-3Z" fill="#307ADD"/><path d="M130 211c1.0625 1.875 1.0625 1.875 2 4l-1 2-5-5 4-1Z" fill="#4685E5"/><path d="M214 200h9l-1 2c-5.4493 1.2754-5.4493 1.2754-8 0v-2Z" fill="#5090EF"/><path d="M309 174c.8125 1.6875.8125 1.6875 1 4-2.4375 2.75-2.4375 2.75-5 5l2-7h2v-2Z" fill="#3778DC"/></svg>