<svg xmlns="http://www.w3.org/2000/svg" fill="#185494" viewBox="0 0 668 599">
  <path d="M332 2.1c-35.7 1.7-69.4 9.6-94.1 21.9-6.5 3.3-8.2 4.8-12.5 10.6-6.4 8.7-15.7 16.3-27 22.1l-9.2 4.7-.5 5.9c-.7 8.1-4.2 14.7-15.8 29.5-10.4 13.4-15.8 23.1-18 32.2-2.9 12.1-.7 58.2 3.6 77.1 6.1 26.3 6.2 32.4.8 54.1-4.3 17.7-4.8 29.8-1.9 45.3 6.1 32.5 19.4 58.7 35.2 69.6 4.3 3 4.4 3.1 4.4 8.8 0 8.7 2.6 20.7 7.5 34.9 7.6 21.9 8.6 26.5 9.2 41.3l.6 13.5-13.6 5.7c-22.8 9.6-38.2 15.2-91.7 33.2-54.8 18.4-77.1 26.5-95.9 34.9l-11.6 5.1-.3 23.3L1 599l333.2-.2 333.3-.3v-49.8l-8.5-2.4c-47.9-13.5-95.8-29.2-124-40.5-21.6-8.7-51.5-23.2-67.8-32.9l-12.3-7.4.7-6.5c1.3-13 15.1-60.5 20.8-71.8 1.4-2.8 6.4-9.1 11-14.1 13.2-14.1 16.8-20.1 21-34.6 6.8-23.4 11.5-54.3 10.2-66.8-.6-5.3-1.5-7.7-4.3-11.8-5.8-8.5-5.8-8.5-1.4-28.4 4.9-22 6.1-32.7 6.1-53.2-.1-53.4-17.2-94.7-55.7-134.3l-11.1-11.6-7.9-1.8c-11.3-2.6-23.9-8.1-42.7-18.5L385.1 3l-8.8-.5c-19.6-1-29.5-1.1-44.3-.4z"/>
</svg>
